<svg id="Layer_1" data-name="Layer 1" xmlns="http://www.w3.org/2000/svg" viewBox="0 0 1038.07 207.07"><title>Artboard 1 copy 13</title><path d="M143.06,81.76l-36.83-17L31.4,105.33v82.85H57V130.36H97.7v57.82H202.07l-1.27-79.8Zm14.41,84H128.64v-23.9h28.83Z"/><polygon points="150.43 61.83 150.43 21.89 143.06 21.89 137.57 21.89 137.57 55.92 109.14 42.86 106.68 41.72 104.32 43 7.92 95.06 7.92 105.64 107.05 52.1 143.06 68.65 224.61 106.11 224.61 95.9 150.43 61.83"/><path d="M369.59,81,332.76,64l-74.83,40.53v82.85h25.6V129.56h40.7v57.82H428.6l-1.27-79.8Zm14.41,84H355.18V141H384Z"/><polygon points="376.97 61.03 376.97 21.09 369.59 21.09 364.11 21.09 364.11 55.12 335.67 42.06 333.22 40.92 330.85 42.2 234.46 94.27 234.46 104.84 333.58 51.3 369.59 67.85 451.14 105.32 451.14 95.11 376.97 61.03"/><path d="M595,82,558.2,65l-74.83,40.53v82.85H509V130.56h40.7v57.82H654l-1.27-79.8Zm14.41,84H580.61V142h28.83Z"/><polygon points="602.4 62.03 602.4 22.09 595.03 22.09 589.54 22.09 589.54 56.12 561.11 43.06 558.65 41.92 556.29 43.2 459.89 95.27 459.89 105.84 559.02 52.3 595.03 68.85 676.58 106.32 676.58 96.11 602.4 62.03"/><path d="M820,82,783.22,65l-74.83,40.53v82.85H734V130.56h40.7v57.82H879.06l-1.27-79.8Zm14.41,84H805.63V142h28.83Z"/><polygon points="827.43 62.03 827.43 22.09 820.05 22.09 814.57 22.09 814.57 56.12 786.13 43.06 783.68 41.92 781.31 43.2 684.92 95.27 684.92 105.84 784.04 52.3 820.05 68.85 901.6 106.32 901.6 96.11 827.43 62.03"/><path d="M980.06,132.57l-18.41-8.49-37.42,20.27v41.43H937V156.87h20.35v28.91h52.19l-.63-39.9Zm7.21,42H972.85v-12h14.41Z"/><polygon points="983.75 122.6 983.75 102.63 980.06 102.63 977.32 102.63 977.32 119.65 963.1 113.12 961.87 112.55 960.69 113.19 912.49 139.22 912.49 144.51 962.06 117.74 980.06 126.01 1020.84 144.75 1020.84 139.64 983.75 122.6"/></svg>