<svg id="Layer_1" data-name="Layer 1" xmlns="http://www.w3.org/2000/svg" viewBox="0 0 500 500"><defs><style>.cls-1{fill:none;stroke:#b0ffe1;stroke-miterlimit:10;stroke-width:13px;}.cls-2{fill:#fff;}</style></defs><title>Artboard 1 copy</title><circle class="cls-1" cx="249.61" cy="250.2" r="237.24"/><path class="cls-2" d="M339.94,216.27a37.39,37.39,0,0,0-74.78-.08,10.68,10.68,0,0,0,21.35,0,16.06,16.06,0,0,1,16-16.07,15.89,15.89,0,0,1,16.07,15.83A21.12,21.12,0,0,1,297.32,237H132a11,11,0,0,0,0,22H297.32a42.77,42.77,0,0,0,42.61-42.73Zm0-.07"/><path class="cls-2" d="M129.29,216h59.24c20,0,36.23-16.56,36.23-36.54a31.6,31.6,0,1,0-63.19-.24,8,8,0,0,0,16-.07,15.61,15.61,0,0,1,15.61-15.59A15.43,15.43,0,0,1,208.76,179a20.09,20.09,0,0,1-20.23,20H129.29c-4.43,0-8,4.09-8,8.49s3.57,8.51,8,8.51Zm0-.5"/><path class="cls-2" d="M329.32,277H174.6a11,11,0,0,0,0,22H329.32a21.22,21.22,0,0,1,21.29,21.18,16.05,16.05,0,0,1-32.1-.08,10.67,10.67,0,1,0-21.35,0,37.38,37.38,0,1,0,74.77-.23A42.85,42.85,0,0,0,329.32,277Zm0,.46"/></svg>