<svg id="Layer_1" data-name="Layer 1" xmlns="http://www.w3.org/2000/svg" viewBox="0 0 500 500"><defs><style>.cls-1{fill:none;stroke:#b0ffe1;stroke-miterlimit:10;stroke-width:13px;}.cls-2{fill:#fff;}</style></defs><title>Artboard 1 copy 3</title><circle class="cls-1" cx="249.61" cy="250.2" r="237.24"/><path class="cls-2" d="M222,162.64v107.2a62.53,62.53,0,0,0-11.71,10.31,52.15,52.15,0,0,0-12.14,32.79c0,.24,0,.47,0,.72a51,51,0,0,0,51,50.29,50.39,50.39,0,0,0,10.37-1.05A51,51,0,0,0,275,269V162.64a26.5,26.5,0,1,0-53,0Zm26.85-7c9.17,0,12.15,7.44,12.15,16.63V284.87c12,3.24,19.19,14.17,20.1,25a20.38,20.38,0,0,1,.13,2.54,32,32,0,0,1-64,0,17.48,17.48,0,0,1,.18-2.54,28.38,28.38,0,0,1,.78-4.87,27.19,27.19,0,0,1,7.21-12.94,26.82,26.82,0,0,1,5.26-3.84,18.3,18.3,0,0,1,6.38-2.85V172.29a29.6,29.6,0,0,1,.87-8,17.62,17.62,0,0,1,1.11-3,10,10,0,0,1,4.52-4.44,12,12,0,0,1,5.34-1.14Zm-.11,0"/><path class="cls-2" d="M265,332.9a32.6,32.6,0,0,0,8.27-24.48c-.54-5.84-11.8-5.89-11.24,0,.68,7.25-1.57,13.95-6.74,19.85-4.22,4.83,5.54,9.4,9.71,4.63Zm0,0"/></svg>