<svg id="Layer_1" data-name="Layer 1" xmlns="http://www.w3.org/2000/svg" viewBox="0 0 1041.47 1148.17"><defs><style>.cls-1{fill:#e6e6e6;}.cls-2{fill:#999;}.cls-3{fill:#fff;}.cls-4{fill:#7570b3;}.cls-5{fill:#f5a447;}.cls-6{fill:#75ceaf;}.cls-7{fill:#ffc28a;}.cls-8{fill:#96e2c5;}.cls-9{fill:#9898e2;}</style></defs><title>carbon-graph</title><rect class="cls-1" x="139.11" y="477.63" width="860" height="0.5"/><rect class="cls-1" x="139.11" y="509.63" width="860" height="0.5"/><rect class="cls-1" x="139.11" y="541.63" width="860" height="0.5"/><rect class="cls-1" x="139.11" y="573.63" width="860" height="0.5"/><rect class="cls-1" x="139.11" y="605.63" width="860" height="0.5"/><rect class="cls-1" x="139.11" y="637.63" width="860" height="0.5"/><rect class="cls-1" x="139.11" y="669.63" width="860" height="0.5"/><rect class="cls-1" x="139.11" y="701.63" width="860" height="0.5"/><rect class="cls-1" x="139.11" y="733.63" width="860" height="0.5"/><rect class="cls-1" x="139.11" y="765.63" width="860" height="0.5"/><rect class="cls-1" x="139.11" y="797.63" width="860" height="0.5"/><rect class="cls-1" x="139.11" y="829.63" width="860" height="0.5"/><rect class="cls-1" x="139.11" y="861.63" width="860" height="0.5"/><rect class="cls-1" x="139.11" y="893.63" width="860" height="0.5"/><rect class="cls-1" x="139.11" y="925.63" width="860" height="0.5"/><rect class="cls-1" x="139.11" y="957.63" width="860" height="0.5"/><rect class="cls-1" x="139.11" y="989.63" width="860" height="0.5"/><rect class="cls-1" x="139.11" y="1021.63" width="860" height="0.5"/><path class="cls-2" d="M113,1024.36a6.73,6.73,0,0,1,0-6.86,2.75,2.75,0,0,1,4.79,0,6.73,6.73,0,0,1,0,6.86,2.75,2.75,0,0,1-4.79,0Zm.78-6.27a6.27,6.27,0,0,0,0,5.68,1.77,1.77,0,0,0,3.22,0,6.19,6.19,0,0,0,0-5.68,1.77,1.77,0,0,0-3.22,0Z"/><path class="cls-2" d="M100.25,985.23H98.69l.54-1h2.06v9.35h-1Z"/><path class="cls-2" d="M105.18,992.36a6.73,6.73,0,0,1,0-6.86,2.75,2.75,0,0,1,4.79,0,6.73,6.73,0,0,1,0,6.86,2.75,2.75,0,0,1-4.79,0Zm.78-6.27a6.27,6.27,0,0,0,0,5.68,1.77,1.77,0,0,0,3.23,0,6.27,6.27,0,0,0,0-5.68,1.77,1.77,0,0,0-3.23,0Z"/><path class="cls-2" d="M113.13,992.36a6.73,6.73,0,0,1,0-6.86,2.75,2.75,0,0,1,4.79,0,6.73,6.73,0,0,1,0,6.86,2.75,2.75,0,0,1-4.79,0Zm.79-6.27a6.19,6.19,0,0,0,0,5.68,1.77,1.77,0,0,0,3.22,0,6.19,6.19,0,0,0,0-5.68,1.77,1.77,0,0,0-3.22,0Z"/><path class="cls-2" d="M97,961.6l3.4-3.94c.24-.28.87-1,1.09-1.36a2.34,2.34,0,0,0,.52-1.43,1.76,1.76,0,0,0-1.86-1.82,1.79,1.79,0,0,0-1.55.83,2,2,0,0,0-.31,1.1h-1a3,3,0,0,1,.7-1.93,2.94,2.94,0,0,1,5.1,1.84,3.29,3.29,0,0,1-.74,2,19.59,19.59,0,0,1-1.28,1.55l-1.94,2.2h4v1Z"/><path class="cls-2" d="M105.46,960.36a6.73,6.73,0,0,1,0-6.86,2.75,2.75,0,0,1,4.79,0,6.73,6.73,0,0,1,0,6.86,2.75,2.75,0,0,1-4.79,0Zm.79-6.27a6.19,6.19,0,0,0,0,5.68,1.77,1.77,0,0,0,3.22,0,6.27,6.27,0,0,0,0-5.68,1.77,1.77,0,0,0-3.22,0Z"/><path class="cls-2" d="M113.41,960.36a6.79,6.79,0,0,1,0-6.86,2.76,2.76,0,0,1,4.8,0,6.79,6.79,0,0,1,0,6.86,2.76,2.76,0,0,1-4.8,0Zm.79-6.27a6.19,6.19,0,0,0,0,5.68,1.77,1.77,0,0,0,3.22,0,6.19,6.19,0,0,0,0-5.68,1.77,1.77,0,0,0-3.22,0Z"/><path class="cls-2" d="M97.48,922.56a2.92,2.92,0,0,1,.44-1.37,2.66,2.66,0,0,1,4.8,1.43,2.48,2.48,0,0,0,.14,4.33,2.89,2.89,0,0,1-5.48,1.2,2.83,2.83,0,0,1-.21-1h1a2,2,0,0,0,.34.94,1.72,1.72,0,0,0,1.44.7,1.84,1.84,0,0,0,1.83-1.89,1.66,1.66,0,0,0-.92-1.57,2.31,2.31,0,0,0-1.06-.19v-.93a2,2,0,0,0,1.06-.2,1.6,1.6,0,0,0-.81-3,1.44,1.44,0,0,0-1.21.53,1.92,1.92,0,0,0-.36,1Z"/><path class="cls-2" d="M105.81,928.36a6.73,6.73,0,0,1,0-6.86,2.75,2.75,0,0,1,4.79,0,6.73,6.73,0,0,1,0,6.86,2.75,2.75,0,0,1-4.79,0Zm.79-6.27a6.19,6.19,0,0,0,0,5.68,1.77,1.77,0,0,0,3.22,0,6.27,6.27,0,0,0,0-5.68,1.77,1.77,0,0,0-3.22,0Z"/><path class="cls-2" d="M113.76,928.36a6.79,6.79,0,0,1,0-6.86,2.76,2.76,0,0,1,4.8,0,6.79,6.79,0,0,1,0,6.86,2.76,2.76,0,0,1-4.8,0Zm.79-6.27a6.19,6.19,0,0,0,0,5.68,1.77,1.77,0,0,0,3.22,0,6.19,6.19,0,0,0,0-5.68,1.77,1.77,0,0,0-3.22,0Z"/><path class="cls-2" d="M102.14,894.88h1.14v1h-1.14v1.77h-1v-1.77H96.31l5.83-8.1Zm-1,0v-4.13l-3,4.13Z"/><path class="cls-2" d="M105.56,896.36a6.73,6.73,0,0,1,0-6.86,2.75,2.75,0,0,1,4.79,0,6.73,6.73,0,0,1,0,6.86,2.75,2.75,0,0,1-4.79,0Zm.79-6.27a6.19,6.19,0,0,0,0,5.68,1.77,1.77,0,0,0,3.22,0,6.27,6.27,0,0,0,0-5.68,1.77,1.77,0,0,0-3.22,0Z"/><path class="cls-2" d="M113.51,896.36a6.79,6.79,0,0,1,0-6.86,2.76,2.76,0,0,1,4.8,0,6.79,6.79,0,0,1,0,6.86,2.76,2.76,0,0,1-4.8,0Zm.79-6.27a6.19,6.19,0,0,0,0,5.68,1.77,1.77,0,0,0,3.22,0,6.19,6.19,0,0,0,0-5.68,1.77,1.77,0,0,0-3.22,0Z"/><path class="cls-2" d="M103,857.2h-3l-.6,2a2.65,2.65,0,0,1,.59-.05,3,3,0,0,1,3.08,3.23,3.27,3.27,0,0,1-3.41,3.36,3.15,3.15,0,0,1-2.08-.73,3.83,3.83,0,0,1-.82-.95l.83-.59a2.09,2.09,0,0,0,.63.76,2.31,2.31,0,0,0,3.81-1.83,2.22,2.22,0,0,0-2.3-2.3,3,3,0,0,0-1.8.64l1.36-4.51H103Z"/><path class="cls-2" d="M105.81,864.36a6.73,6.73,0,0,1,0-6.86,2.75,2.75,0,0,1,4.79,0,6.73,6.73,0,0,1,0,6.86,2.75,2.75,0,0,1-4.79,0Zm.79-6.27a6.19,6.19,0,0,0,0,5.68,1.77,1.77,0,0,0,3.22,0,6.27,6.27,0,0,0,0-5.68,1.77,1.77,0,0,0-3.22,0Z"/><path class="cls-2" d="M113.76,864.36a6.79,6.79,0,0,1,0-6.86,2.76,2.76,0,0,1,4.8,0,6.79,6.79,0,0,1,0,6.86,2.76,2.76,0,0,1-4.8,0Zm.79-6.27a6.19,6.19,0,0,0,0,5.68,1.77,1.77,0,0,0,3.22,0,6.19,6.19,0,0,0,0-5.68,1.77,1.77,0,0,0-3.22,0Z"/><path class="cls-2" d="M101.77,824.62l-2.14,3a2.76,2.76,0,0,1,.82-.13,3,3,0,0,1,3,3.09,3.23,3.23,0,0,1-6.45,0,3.68,3.68,0,0,1,.77-2.14L101,824Zm.67,6a2.19,2.19,0,0,0-4.37,0,2.19,2.19,0,1,0,4.37,0Z"/><path class="cls-2" d="M105.81,832.36a6.73,6.73,0,0,1,0-6.86,2.75,2.75,0,0,1,4.79,0,6.73,6.73,0,0,1,0,6.86,2.75,2.75,0,0,1-4.79,0Zm.79-6.27a6.19,6.19,0,0,0,0,5.68,1.77,1.77,0,0,0,3.22,0,6.27,6.27,0,0,0,0-5.68,1.77,1.77,0,0,0-3.22,0Z"/><path class="cls-2" d="M113.76,832.36a6.79,6.79,0,0,1,0-6.86,2.76,2.76,0,0,1,4.8,0,6.79,6.79,0,0,1,0,6.86,2.76,2.76,0,0,1-4.8,0Zm.79-6.27a6.19,6.19,0,0,0,0,5.68,1.77,1.77,0,0,0,3.22,0,6.19,6.19,0,0,0,0-5.68,1.77,1.77,0,0,0-3.22,0Z"/><path class="cls-2" d="M102.31,793.2H97.2v-1h6.87l-6.25,9.57-.81-.55Z"/><path class="cls-2" d="M105.11,800.36a6.73,6.73,0,0,1,0-6.86,2.75,2.75,0,0,1,4.79,0,6.73,6.73,0,0,1,0,6.86,2.75,2.75,0,0,1-4.79,0Zm.79-6.27a6.19,6.19,0,0,0,0,5.68,1.77,1.77,0,0,0,3.22,0,6.19,6.19,0,0,0,0-5.68,1.77,1.77,0,0,0-3.22,0Z"/><path class="cls-2" d="M113.06,800.36a6.79,6.79,0,0,1,0-6.86,2.76,2.76,0,0,1,4.8,0,6.79,6.79,0,0,1,0,6.86,2.76,2.76,0,0,1-4.8,0Zm.79-6.27a6.19,6.19,0,0,0,0,5.68,1.77,1.77,0,0,0,3.22,0,6.19,6.19,0,0,0,0-5.68,1.77,1.77,0,0,0-3.22,0Z"/><path class="cls-2" d="M103.11,767a2.86,2.86,0,0,1-5.71,0,2.35,2.35,0,0,1,1.41-2.28,2.29,2.29,0,0,1-1.13-2,2.58,2.58,0,1,1,5.15,0,2.29,2.29,0,0,1-1.13,2A2.35,2.35,0,0,1,103.11,767Zm-1,0a1.82,1.82,0,1,0-1.82,1.82A1.75,1.75,0,0,0,102.08,767Zm-.23-4.29a1.6,1.6,0,1,0-1.59,1.61A1.56,1.56,0,0,0,101.85,762.7Z"/><path class="cls-2" d="M105.81,768.36a6.73,6.73,0,0,1,0-6.86,2.75,2.75,0,0,1,4.79,0,6.73,6.73,0,0,1,0,6.86,2.75,2.75,0,0,1-4.79,0Zm.79-6.27a6.19,6.19,0,0,0,0,5.68,1.77,1.77,0,0,0,3.22,0,6.27,6.27,0,0,0,0-5.68,1.77,1.77,0,0,0-3.22,0Z"/><path class="cls-2" d="M113.76,768.36a6.79,6.79,0,0,1,0-6.86,2.76,2.76,0,0,1,4.8,0,6.79,6.79,0,0,1,0,6.86,2.76,2.76,0,0,1-4.8,0Zm.79-6.27a6.19,6.19,0,0,0,0,5.68,1.77,1.77,0,0,0,3.22,0,6.19,6.19,0,0,0,0-5.68,1.77,1.77,0,0,0-3.22,0Z"/><path class="cls-2" d="M98.74,739.7l2.15-3a2.88,2.88,0,0,1-.83.13,3,3,0,0,1-3-3.08,3.23,3.23,0,0,1,6.45,0,3.66,3.66,0,0,1-.77,2.14l-3.18,4.4Zm-.67-6a2.19,2.19,0,0,0,4.37,0,2.19,2.19,0,1,0-4.37,0Z"/><path class="cls-2" d="M105.81,738.82a6.73,6.73,0,0,1,0-6.86,2.75,2.75,0,0,1,4.79,0,6.73,6.73,0,0,1,0,6.86,2.75,2.75,0,0,1-4.79,0Zm.79-6.27a6.19,6.19,0,0,0,0,5.68,1.77,1.77,0,0,0,3.22,0,6.27,6.27,0,0,0,0-5.68,1.77,1.77,0,0,0-3.22,0Z"/><path class="cls-2" d="M113.76,738.82a6.79,6.79,0,0,1,0-6.86,2.76,2.76,0,0,1,4.8,0,6.79,6.79,0,0,1,0,6.86,2.76,2.76,0,0,1-4.8,0Zm.79-6.27a6.19,6.19,0,0,0,0,5.68,1.77,1.77,0,0,0,3.22,0,6.19,6.19,0,0,0,0-5.68,1.77,1.77,0,0,0-3.22,0Z"/><path class="cls-2" d="M93.09,699.69H91.52l.54-1h2.06v9.34h-1Z"/><path class="cls-2" d="M98,706.82A6.79,6.79,0,0,1,98,700a2.75,2.75,0,0,1,4.79,0,6.73,6.73,0,0,1,0,6.86,2.75,2.75,0,0,1-4.79,0Zm.79-6.27a6.19,6.19,0,0,0,0,5.68,1.77,1.77,0,0,0,3.22,0,6.19,6.19,0,0,0,0-5.68,1.77,1.77,0,0,0-3.22,0Z"/><path class="cls-2" d="M106,706.82a6.73,6.73,0,0,1,0-6.86,2.75,2.75,0,0,1,4.79,0,6.79,6.79,0,0,1,0,6.86,2.75,2.75,0,0,1-4.79,0Zm.78-6.27a6.19,6.19,0,0,0,0,5.68,1.77,1.77,0,0,0,3.22,0,6.19,6.19,0,0,0,0-5.68,1.77,1.77,0,0,0-3.22,0Z"/><path class="cls-2" d="M113.92,706.82a6.73,6.73,0,0,1,0-6.86,2.75,2.75,0,0,1,4.79,0,6.73,6.73,0,0,1,0,6.86,2.75,2.75,0,0,1-4.79,0Zm.78-6.27a6.27,6.27,0,0,0,0,5.68,1.77,1.77,0,0,0,3.22,0,6.19,6.19,0,0,0,0-5.68,1.77,1.77,0,0,0-3.22,0Z"/><path class="cls-2" d="M96.17,667.69H94.6l.55-1h2.06v9.34h-1Z"/><path class="cls-2" d="M101,667.69H99.4l.55-1H102v9.34h-1Z"/><path class="cls-2" d="M105.9,674.82a6.73,6.73,0,0,1,0-6.86,2.75,2.75,0,0,1,4.79,0,6.73,6.73,0,0,1,0,6.86,2.75,2.75,0,0,1-4.79,0Zm.78-6.27a6.27,6.27,0,0,0,0,5.68,1.77,1.77,0,0,0,3.23,0,6.27,6.27,0,0,0,0-5.68,1.77,1.77,0,0,0-3.23,0Z"/><path class="cls-2" d="M113.85,674.82a6.73,6.73,0,0,1,0-6.86,2.75,2.75,0,0,1,4.79,0,6.73,6.73,0,0,1,0,6.86,2.75,2.75,0,0,1-4.79,0Zm.79-6.27a6.19,6.19,0,0,0,0,5.68,1.77,1.77,0,0,0,3.22,0,6.27,6.27,0,0,0,0-5.68,1.77,1.77,0,0,0-3.22,0Z"/><path class="cls-2" d="M94.5,635.69H92.94l.54-1h2.06v9.34h-1Z"/><path class="cls-2" d="M97.33,644.05l3.4-3.93c.24-.28.87-1,1.1-1.36a2.38,2.38,0,0,0,.51-1.43,1.86,1.86,0,0,0-3.41-1,2,2,0,0,0-.31,1.1h-1a3,3,0,0,1,.7-1.93,2.94,2.94,0,0,1,5.1,1.84,3.29,3.29,0,0,1-.74,2c-.39.54-.9,1.12-1.28,1.55l-1.94,2.2h4v.95Z"/><path class="cls-2" d="M105.81,642.82a6.79,6.79,0,0,1,0-6.86,2.76,2.76,0,0,1,4.8,0,6.79,6.79,0,0,1,0,6.86,2.76,2.76,0,0,1-4.8,0Zm.79-6.27a6.19,6.19,0,0,0,0,5.68,1.77,1.77,0,0,0,3.22,0,6.19,6.19,0,0,0,0-5.68,1.77,1.77,0,0,0-3.22,0Z"/><path class="cls-2" d="M113.77,642.82a6.73,6.73,0,0,1,0-6.86,2.75,2.75,0,0,1,4.79,0,6.73,6.73,0,0,1,0,6.86,2.75,2.75,0,0,1-4.79,0Zm.78-6.27a6.27,6.27,0,0,0,0,5.68,1.77,1.77,0,0,0,3.22,0,6.19,6.19,0,0,0,0-5.68,1.77,1.77,0,0,0-3.22,0Z"/><path class="cls-2" d="M93.59,603.69H92l.54-1h2.06v9.34h-1Z"/><path class="cls-2" d="M97.1,605a3,3,0,0,1,.43-1.37,2.66,2.66,0,0,1,4.81,1.43,2.47,2.47,0,0,0,.14,4.33,2.89,2.89,0,0,1-5.48,1.2,2.83,2.83,0,0,1-.21-1h1a2.07,2.07,0,0,0,.33.94,1.74,1.74,0,0,0,1.45.7,1.85,1.85,0,0,0,1.83-1.89,1.66,1.66,0,0,0-.92-1.57,2.49,2.49,0,0,0-1.07-.2v-.92a2,2,0,0,0,1.07-.2,1.6,1.6,0,0,0-.82-3,1.42,1.42,0,0,0-1.2.53,1.83,1.83,0,0,0-.36,1Z"/><path class="cls-2" d="M105.43,610.82a6.73,6.73,0,0,1,0-6.86,2.75,2.75,0,0,1,4.79,0,6.73,6.73,0,0,1,0,6.86,2.75,2.75,0,0,1-4.79,0Zm.78-6.27a6.27,6.27,0,0,0,0,5.68,1.77,1.77,0,0,0,3.23,0,6.27,6.27,0,0,0,0-5.68,1.77,1.77,0,0,0-3.23,0Z"/><path class="cls-2" d="M113.38,610.82a6.73,6.73,0,0,1,0-6.86,2.75,2.75,0,0,1,4.79,0,6.73,6.73,0,0,1,0,6.86,2.75,2.75,0,0,1-4.79,0Zm.79-6.27a6.19,6.19,0,0,0,0,5.68,1.77,1.77,0,0,0,3.22,0,6.27,6.27,0,0,0,0-5.68,1.77,1.77,0,0,0-3.22,0Z"/><path class="cls-2" d="M93.59,571.69H92l.54-1h2.06v9.34h-1Z"/><path class="cls-2" d="M102.17,577.34h1.15v.95h-1.15v1.76h-1v-1.76H96.34l5.83-8.1Zm-1,0v-4.13l-2.95,4.13Z"/><path class="cls-2" d="M105.6,578.82a6.73,6.73,0,0,1,0-6.86,2.75,2.75,0,0,1,4.79,0,6.73,6.73,0,0,1,0,6.86,2.75,2.75,0,0,1-4.79,0Zm.78-6.27a6.27,6.27,0,0,0,0,5.68,1.77,1.77,0,0,0,3.22,0,6.19,6.19,0,0,0,0-5.68,1.77,1.77,0,0,0-3.22,0Z"/><path class="cls-2" d="M113.55,578.82a6.73,6.73,0,0,1,0-6.86,2.75,2.75,0,0,1,4.79,0,6.73,6.73,0,0,1,0,6.86,2.75,2.75,0,0,1-4.79,0Zm.78-6.27a6.27,6.27,0,0,0,0,5.68,1.77,1.77,0,0,0,3.23,0,6.27,6.27,0,0,0,0-5.68,1.77,1.77,0,0,0-3.23,0Z"/><path class="cls-2" d="M93.75,539.69H92.19l.54-1h2.06v9.34h-1Z"/><path class="cls-2" d="M102.94,539.66h-3l-.6,2a2.65,2.65,0,0,1,.59,0,3,3,0,0,1,3.08,3.23,3.27,3.27,0,0,1-3.4,3.36,3.16,3.16,0,0,1-2.09-.73,3.6,3.6,0,0,1-.81-1l.82-.59a2.2,2.2,0,0,0,.63.76,2.31,2.31,0,0,0,3.81-1.83,2.21,2.21,0,0,0-2.29-2.3,3,3,0,0,0-1.81.64l1.36-4.51h3.71Z"/><path class="cls-2" d="M105.76,546.82a6.79,6.79,0,0,1,0-6.86,2.76,2.76,0,0,1,4.8,0,6.79,6.79,0,0,1,0,6.86,2.76,2.76,0,0,1-4.8,0Zm.79-6.27a6.19,6.19,0,0,0,0,5.68,1.77,1.77,0,0,0,3.22,0,6.19,6.19,0,0,0,0-5.68,1.77,1.77,0,0,0-3.22,0Z"/><path class="cls-2" d="M113.72,546.82a6.73,6.73,0,0,1,0-6.86,2.75,2.75,0,0,1,4.79,0,6.73,6.73,0,0,1,0,6.86,2.75,2.75,0,0,1-4.79,0Zm.78-6.27a6.19,6.19,0,0,0,0,5.68,1.77,1.77,0,0,0,3.22,0,6.19,6.19,0,0,0,0-5.68,1.77,1.77,0,0,0-3.22,0Z"/><path class="cls-2" d="M92.84,507.69H91.27l.54-1h2.06v9.34h-1Z"/><path class="cls-2" d="M101.15,507.08l-2.14,3a2.83,2.83,0,0,1,.83-.13,3,3,0,0,1,3,3.09,3.22,3.22,0,0,1-6.44,0,3.68,3.68,0,0,1,.77-2.14l3.18-4.41Zm.68,6a2.19,2.19,0,0,0-4.37,0,2.19,2.19,0,1,0,4.37,0Z"/><path class="cls-2" d="M105.2,514.82a6.73,6.73,0,0,1,0-6.86,2.75,2.75,0,0,1,4.79,0,6.73,6.73,0,0,1,0,6.86,2.75,2.75,0,0,1-4.79,0Zm.78-6.27a6.27,6.27,0,0,0,0,5.68,1.77,1.77,0,0,0,3.22,0,6.19,6.19,0,0,0,0-5.68,1.77,1.77,0,0,0-3.22,0Z"/><path class="cls-2" d="M113.15,514.82a6.73,6.73,0,0,1,0-6.86,2.75,2.75,0,0,1,4.79,0,6.73,6.73,0,0,1,0,6.86,2.75,2.75,0,0,1-4.79,0Zm.78-6.27a6.27,6.27,0,0,0,0,5.68,1.77,1.77,0,0,0,3.23,0,6.27,6.27,0,0,0,0-5.68,1.77,1.77,0,0,0-3.23,0Z"/><path class="cls-2" d="M94.5,475.69H92.94l.54-1h2.06v9.34h-1Z"/><path class="cls-2" d="M103.2,475.66H98.09v-1H105l-6.25,9.57-.81-.55Z"/><path class="cls-2" d="M106,482.82a6.73,6.73,0,0,1,0-6.86,2.75,2.75,0,0,1,4.79,0,6.73,6.73,0,0,1,0,6.86,2.75,2.75,0,0,1-4.79,0Zm.78-6.27a6.19,6.19,0,0,0,0,5.68,1.77,1.77,0,0,0,3.22,0,6.19,6.19,0,0,0,0-5.68,1.77,1.77,0,0,0-3.22,0Z"/><path class="cls-2" d="M114,482.82a6.73,6.73,0,0,1,0-6.86,2.75,2.75,0,0,1,4.79,0,6.73,6.73,0,0,1,0,6.86,2.75,2.75,0,0,1-4.79,0Zm.78-6.27a6.27,6.27,0,0,0,0,5.68,1.77,1.77,0,0,0,3.23,0,6.27,6.27,0,0,0,0-5.68,1.77,1.77,0,0,0-3.23,0Z"/><rect class="cls-1" x="138.78" y="126.13" width="860" height="0.5"/><rect class="cls-1" x="138.78" y="158.13" width="860" height="0.5"/><rect class="cls-1" x="138.78" y="190.13" width="860" height="0.5"/><rect class="cls-1" x="138.78" y="222.13" width="860" height="0.5"/><rect class="cls-1" x="138.78" y="254.13" width="860" height="0.5"/><rect class="cls-1" x="138.78" y="286.13" width="860" height="0.5"/><rect class="cls-1" x="138.78" y="318.13" width="860" height="0.5"/><rect class="cls-1" x="138.78" y="350.13" width="860" height="0.5"/><rect class="cls-1" x="138.78" y="382.13" width="860" height="0.5"/><rect class="cls-1" x="138.78" y="414.13" width="860" height="0.5"/><rect class="cls-1" x="138.78" y="446.13" width="860" height="0.5"/><path class="cls-2" d="M93.5,444.19H91.94l.54-1h2.06v9.34h-1Z"/><path class="cls-2" d="M102.82,450a2.86,2.86,0,0,1-5.72,0,2.37,2.37,0,0,1,1.41-2.29,2.27,2.27,0,0,1-1.13-2,2.58,2.58,0,1,1,5.16,0,2.28,2.28,0,0,1-1.14,2A2.37,2.37,0,0,1,102.82,450Zm-1,0a1.82,1.82,0,1,0-1.82,1.82A1.73,1.73,0,0,0,101.78,450Zm-.23-4.29a1.6,1.6,0,1,0-1.59,1.61A1.56,1.56,0,0,0,101.55,445.66Z"/><path class="cls-2" d="M105.51,451.32a6.79,6.79,0,0,1,0-6.86,2.76,2.76,0,0,1,4.8,0,6.79,6.79,0,0,1,0,6.86,2.76,2.76,0,0,1-4.8,0Zm.79-6.27a6.19,6.19,0,0,0,0,5.68,1.77,1.77,0,0,0,3.22,0,6.19,6.19,0,0,0,0-5.68,1.77,1.77,0,0,0-3.22,0Z"/><path class="cls-2" d="M113.47,451.32a6.73,6.73,0,0,1,0-6.86,2.75,2.75,0,0,1,4.79,0,6.73,6.73,0,0,1,0,6.86,2.75,2.75,0,0,1-4.79,0Zm.78-6.27a6.19,6.19,0,0,0,0,5.68,1.77,1.77,0,0,0,3.22,0,6.19,6.19,0,0,0,0-5.68,1.77,1.77,0,0,0-3.22,0Z"/><path class="cls-2" d="M93.5,412.19H91.94l.54-1h2.06v9.34h-1Z"/><path class="cls-2" d="M98.63,420.2l2.14-3a2.83,2.83,0,0,1-.83.13,3,3,0,0,1-3-3.08,3.22,3.22,0,0,1,6.44,0,3.66,3.66,0,0,1-.77,2.14l-3.18,4.4Zm-.68-6a2.19,2.19,0,0,0,4.38,0,2.19,2.19,0,1,0-4.38,0Z"/><path class="cls-2" d="M105.7,419.32a6.73,6.73,0,0,1,0-6.86,2.75,2.75,0,0,1,4.79,0,6.73,6.73,0,0,1,0,6.86,2.75,2.75,0,0,1-4.79,0Zm.78-6.27a6.19,6.19,0,0,0,0,5.68,1.77,1.77,0,0,0,3.22,0,6.19,6.19,0,0,0,0-5.68,1.77,1.77,0,0,0-3.22,0Z"/><path class="cls-2" d="M113.65,419.32a6.73,6.73,0,0,1,0-6.86,2.75,2.75,0,0,1,4.79,0,6.73,6.73,0,0,1,0,6.86,2.75,2.75,0,0,1-4.79,0Zm.78-6.27a6.27,6.27,0,0,0,0,5.68,1.77,1.77,0,0,0,3.22,0,6.19,6.19,0,0,0,0-5.68,1.77,1.77,0,0,0-3.22,0Z"/><path class="cls-2" d="M89.06,388.55l3.4-3.93c.24-.28.87-1,1.1-1.36a2.41,2.41,0,0,0,.52-1.43,1.87,1.87,0,0,0-3.42-1,2,2,0,0,0-.31,1.1h-1A3,3,0,0,1,90,380a2.78,2.78,0,0,1,2.22-.95,2.75,2.75,0,0,1,2.88,2.79,3.29,3.29,0,0,1-.74,2c-.39.54-.9,1.12-1.27,1.55l-1.95,2.2H95.1v.95Z"/><path class="cls-2" d="M97.55,387.32a6.73,6.73,0,0,1,0-6.86,2.75,2.75,0,0,1,4.79,0,6.79,6.79,0,0,1,0,6.86,2.75,2.75,0,0,1-4.79,0Zm.78-6.27a6.19,6.19,0,0,0,0,5.68,1.77,1.77,0,0,0,3.22,0,6.19,6.19,0,0,0,0-5.68,1.77,1.77,0,0,0-3.22,0Z"/><path class="cls-2" d="M105.5,387.32a6.73,6.73,0,0,1,0-6.86,2.75,2.75,0,0,1,4.79,0,6.73,6.73,0,0,1,0,6.86,2.75,2.75,0,0,1-4.79,0Zm.78-6.27a6.27,6.27,0,0,0,0,5.68,1.77,1.77,0,0,0,3.22,0,6.19,6.19,0,0,0,0-5.68,1.77,1.77,0,0,0-3.22,0Z"/><path class="cls-2" d="M113.45,387.32a6.73,6.73,0,0,1,0-6.86,2.75,2.75,0,0,1,4.79,0,6.73,6.73,0,0,1,0,6.86,2.75,2.75,0,0,1-4.79,0Zm.78-6.27a6.27,6.27,0,0,0,0,5.68,1.77,1.77,0,0,0,3.23,0,6.27,6.27,0,0,0,0-5.68,1.77,1.77,0,0,0-3.23,0Z"/><path class="cls-2" d="M936.68,338.69l4.37-5.06c.31-.36,1.12-1.32,1.41-1.75a3.07,3.07,0,0,0,.66-1.84,2.27,2.27,0,0,0-2.39-2.34,2.3,2.3,0,0,0-2,1.07,2.72,2.72,0,0,0-.4,1.42H937a3.86,3.86,0,0,1,.9-2.49,3.59,3.59,0,0,1,2.85-1.22,3.55,3.55,0,0,1,3.71,3.58,4.27,4.27,0,0,1-1,2.58c-.5.7-1.15,1.44-1.64,2l-2.5,2.82h5.08v1.23Z"/><path class="cls-2" d="M947.87,336.92l1.19.43-1.82,4.07-.84-.34Z"/><path class="cls-2" d="M953.17,327.94h-2l.7-1.26h2.65v12h-1.33Z"/><path class="cls-2" d="M964.56,327.9H958v-1.22h8.82l-8,12.3-1-.71Z"/><path class="cls-2" d="M969.56,327.94h-2l.7-1.26h2.65v12h-1.34Z"/><rect class="cls-3" x="702.11" y="408.38" width="41.71" height="17.03"/><path class="cls-2" d="M706.9,410.75h-2l.71-1.26h2.64v12H706.9Z"/><path class="cls-2" d="M712.86,419.74l1.19.43-1.82,4.07-.85-.34Z"/><path class="cls-2" d="M724.31,418.19a3.68,3.68,0,0,1-7.35,0,3,3,0,0,1,1.82-2.94,2.94,2.94,0,0,1-1.46-2.63,3.32,3.32,0,1,1,6.63,0,2.94,2.94,0,0,1-1.46,2.63A3,3,0,0,1,724.31,418.19Zm-1.33,0a2.35,2.35,0,1,0-2.35,2.34A2.23,2.23,0,0,0,723,418.15Zm-.29-5.51a2.06,2.06,0,1,0-2.06,2.07A2,2,0,0,0,722.69,412.64Z"/><path class="cls-2" d="M732.82,410.72h-6.57v-1.23h8.82l-8,12.3-1-.7Z"/><path class="cls-2" d="M740.87,418h1.47v1.22h-1.47v2.27h-1.33v-2.27h-6.16l7.49-10.41Zm-1.33,0V412.7l-3.8,5.31Z"/><rect class="cls-3" x="472.26" y="412.38" width="45.85" height="17.03"/><path class="cls-2" d="M475.94,414.45h-2l.7-1.26h2.64v12h-1.33Z"/><path class="cls-2" d="M481.9,423.44l1.19.43-1.82,4.07-.85-.34Z"/><path class="cls-2" d="M493.35,421.89a3.68,3.68,0,0,1-7.35,0,3.05,3.05,0,0,1,1.82-2.94,2.93,2.93,0,0,1-1.46-2.62,3.32,3.32,0,1,1,6.63,0,2.91,2.91,0,0,1-1.46,2.62A3.05,3.05,0,0,1,493.35,421.89Zm-1.33,0a2.34,2.34,0,1,0-2.34,2.34A2.24,2.24,0,0,0,492,421.85Zm-.29-5.51a2.06,2.06,0,1,0-2.05,2.07A2,2,0,0,0,491.73,416.34Z"/><path class="cls-2" d="M502.4,421.71h1.48v1.22H502.4v2.27h-1.33v-2.27h-6.16l7.49-10.4Zm-1.33,0V416.4l-3.8,5.31Z"/><path class="cls-2" d="M505,425.2l4.38-5.06c.3-.36,1.11-1.31,1.4-1.74a3.12,3.12,0,0,0,.67-1.84,2.27,2.27,0,0,0-2.4-2.34,2.31,2.31,0,0,0-2,1.06,2.63,2.63,0,0,0-.4,1.42h-1.33a3.79,3.79,0,0,1,.9-2.48,3.78,3.78,0,0,1,6.55,2.36,4.21,4.21,0,0,1-.95,2.57c-.51.71-1.16,1.44-1.64,2l-2.5,2.83h5.07v1.22Z"/><rect class="cls-3" x="243.15" y="157.54" width="45.85" height="17.03"/><path class="cls-2" d="M243,170.36l4.37-5.05c.31-.36,1.12-1.32,1.41-1.75a3.09,3.09,0,0,0,.66-1.84,2.27,2.27,0,0,0-2.39-2.34,2.31,2.31,0,0,0-2,1.06,2.73,2.73,0,0,0-.4,1.43h-1.33a3.91,3.91,0,0,1,.9-2.49,3.59,3.59,0,0,1,2.85-1.22,3.55,3.55,0,0,1,3.71,3.58,4.27,4.27,0,0,1-1,2.58,25.26,25.26,0,0,1-1.64,2l-2.5,2.83h5.08v1.22Z"/><path class="cls-2" d="M254.14,168.6l1.19.43-1.82,4.07-.84-.34Z"/><path class="cls-2" d="M263.87,158.82l-2.76,3.84a3.4,3.4,0,0,1,1.06-.16,3.8,3.8,0,0,1,3.89,4,4.14,4.14,0,0,1-8.28,0,4.73,4.73,0,0,1,1-2.75l4.09-5.67Zm.86,7.67a2.81,2.81,0,0,0-5.62,0,2.81,2.81,0,1,0,5.62,0Z"/><path class="cls-2" d="M275.1,166.87h1.48v1.23H275.1v2.26h-1.33V168.1h-6.16l7.49-10.41Zm-1.33,0v-5.31l-3.8,5.31Z"/><path class="cls-2" d="M277.69,170.36l4.37-5.05c.31-.36,1.12-1.32,1.41-1.75a3.09,3.09,0,0,0,.66-1.84,2.27,2.27,0,0,0-2.39-2.34,2.31,2.31,0,0,0-2,1.06,2.73,2.73,0,0,0-.4,1.43H278a3.86,3.86,0,0,1,.9-2.49,3.59,3.59,0,0,1,2.85-1.22,3.55,3.55,0,0,1,3.71,3.58,4.27,4.27,0,0,1-1,2.58,25.26,25.26,0,0,1-1.64,2l-2.5,2.83h5.08v1.22Z"/><path class="cls-2" d="M897.61,882.69h1.47v1.23h-1.47v2.27h-1.34v-2.27h-6.15l7.49-10.41Zm-1.34,0v-5.31l-3.8,5.31Z"/><path class="cls-2" d="M902,884.6a8.7,8.7,0,0,1,0-8.82,3.54,3.54,0,0,1,6.16,0,8.64,8.64,0,0,1,0,8.82,3.54,3.54,0,0,1-6.16,0Zm1-8.06a8,8,0,0,0,0,7.31,2.28,2.28,0,0,0,4.14,0,8,8,0,0,0,0-7.31,2.27,2.27,0,0,0-4.14,0Z"/><path class="cls-2" d="M919,882.87a3.68,3.68,0,0,1-7.35,0,3,3,0,0,1,1.82-2.93,2.94,2.94,0,0,1-1.46-2.63,3.32,3.32,0,1,1,6.63,0,2.92,2.92,0,0,1-1.46,2.63A3,3,0,0,1,919,882.87Zm-1.33,0a2.34,2.34,0,1,0-2.34,2.34A2.22,2.22,0,0,0,917.66,882.84Zm-.29-5.51a2.06,2.06,0,1,0-2,2.07A2,2,0,0,0,917.37,877.33Z"/><path class="cls-2" d="M856.24,1002.87l-2.75,3.83a3.67,3.67,0,0,1,1.06-.16,3.81,3.81,0,0,1,3.89,4,4.14,4.14,0,0,1-8.28,0,4.75,4.75,0,0,1,1-2.76l4.08-5.67Zm.87,7.67a2.81,2.81,0,0,0-5.62,0,2.81,2.81,0,1,0,5.62,0Z"/><path class="cls-2" d="M627.81,1003.62H624l-.78,2.6a3,3,0,0,1,.76-.07,3.9,3.9,0,0,1,4,4.15,4.21,4.21,0,0,1-4.38,4.33,4.05,4.05,0,0,1-2.68-.94,4.79,4.79,0,0,1-1-1.22l1.06-.76a2.79,2.79,0,0,0,.81,1,2.89,2.89,0,0,0,1.94.72,3,3,0,0,0,3-3.08,2.85,2.85,0,0,0-3-3,3.9,3.9,0,0,0-2.32.83l1.75-5.8h4.77Z"/><path class="cls-2" d="M401.14,1003.62h-3.85l-.78,2.6a3,3,0,0,1,.76-.07,3.9,3.9,0,0,1,4,4.15,4.21,4.21,0,0,1-4.37,4.33,4.06,4.06,0,0,1-2.69-.94,5,5,0,0,1-1-1.22l1.06-.76a2.79,2.79,0,0,0,.81,1,2.94,2.94,0,0,0,1.95.72,3,3,0,0,0,2.95-3.08,2.84,2.84,0,0,0-2.95-3,3.9,3.9,0,0,0-2.33.83l1.75-5.8h4.77Z"/><path class="cls-2" d="M163.85,1012.46l2.76-3.84a3.43,3.43,0,0,1-1.07.17,3.8,3.8,0,0,1-3.88-4,4.14,4.14,0,0,1,8.28,0,4.69,4.69,0,0,1-1,2.75l-4.09,5.66Zm-.86-7.67a2.81,2.81,0,0,0,5.62,0,2.81,2.81,0,1,0-5.62,0Z"/><rect class="cls-3" x="659.93" y="890.27" width="28.72" height="15.8"/><path class="cls-2" d="M661.48,894.36a3.74,3.74,0,0,1,.56-1.77,3.42,3.42,0,0,1,6.18,1.84,3.18,3.18,0,0,0,.18,5.56,3.5,3.5,0,0,1-3.69,3.62,3.45,3.45,0,0,1-3.35-2.07,3.36,3.36,0,0,1-.27-1.26h1.33a2.74,2.74,0,0,0,.43,1.21,2.25,2.25,0,0,0,1.86.9,2.38,2.38,0,0,0,2.35-2.43,2.13,2.13,0,0,0-1.18-2,3.07,3.07,0,0,0-1.37-.25V896.5a2.61,2.61,0,0,0,1.37-.25,2.07,2.07,0,0,0-1-3.84,1.81,1.81,0,0,0-1.55.69,2.43,2.43,0,0,0-.47,1.26Z"/><path class="cls-2" d="M678.1,892.61h-3.85l-.78,2.59a3.57,3.57,0,0,1,.76-.07,3.9,3.9,0,0,1,4,4.16,4.21,4.21,0,0,1-4.38,4.32,4.09,4.09,0,0,1-2.68-.93,4.84,4.84,0,0,1-1-1.23l1.06-.75a2.88,2.88,0,0,0,.81,1,3,3,0,0,0,4.9-2.36,2.85,2.85,0,0,0-3-2.95,3.94,3.94,0,0,0-2.32.82l1.75-5.79h4.77Z"/><path class="cls-2" d="M688.32,892.61h-3.85l-.78,2.59a3.57,3.57,0,0,1,.76-.07,3.9,3.9,0,0,1,4,4.16,4.2,4.2,0,0,1-4.37,4.32,4.1,4.1,0,0,1-2.69-.93,5.29,5.29,0,0,1-1-1.23l1.06-.75a2.88,2.88,0,0,0,.81,1,3,3,0,0,0,4.9-2.36,2.84,2.84,0,0,0-3-2.95,3.94,3.94,0,0,0-2.33.82l1.75-5.79h4.77Z"/><rect class="cls-3" x="427.43" y="892.28" width="28.72" height="15.8"/><path class="cls-2" d="M429,896.37a3.74,3.74,0,0,1,.56-1.77,3.42,3.42,0,0,1,6.18,1.84,3.18,3.18,0,0,0,.18,5.56,3.5,3.5,0,0,1-3.69,3.62,3.45,3.45,0,0,1-3.35-2.07,3.36,3.36,0,0,1-.27-1.26h1.33a2.74,2.74,0,0,0,.43,1.21,2.25,2.25,0,0,0,1.86.9,2.38,2.38,0,0,0,2.35-2.43,2.13,2.13,0,0,0-1.18-2,3.1,3.1,0,0,0-1.37-.25v-1.19a2.63,2.63,0,0,0,1.37-.25,2.07,2.07,0,0,0-1.05-3.84,1.81,1.81,0,0,0-1.55.69,2.43,2.43,0,0,0-.47,1.26Z"/><path class="cls-2" d="M445.6,894.62h-3.86l-.77,2.59a3.51,3.51,0,0,1,.76-.07,3.9,3.9,0,0,1,4,4.16,4.21,4.21,0,0,1-4.38,4.32,4.09,4.09,0,0,1-2.68-.93,5.09,5.09,0,0,1-1.05-1.23l1.07-.76a2.82,2.82,0,0,0,.81,1,2.94,2.94,0,0,0,1.94.72,3,3,0,0,0,3-3.08,2.85,2.85,0,0,0-3-3,3.94,3.94,0,0,0-2.32.82l1.75-5.79h4.77Z"/><path class="cls-2" d="M449.23,903.82a8.64,8.64,0,0,1,0-8.82,3.54,3.54,0,0,1,6.16,0,8.64,8.64,0,0,1,0,8.82,3.54,3.54,0,0,1-6.16,0Zm1-8.07a8.05,8.05,0,0,0,0,7.32,2.28,2.28,0,0,0,4.14,0,8.05,8.05,0,0,0,0-7.32,2.28,2.28,0,0,0-4.14,0Z"/><rect class="cls-3" x="199.75" y="832.84" width="28.72" height="15.8"/><path class="cls-2" d="M208.38,835.18h-3.86l-.77,2.59a3.48,3.48,0,0,1,.75-.07,3.91,3.91,0,0,1,4,4.16,4.21,4.21,0,0,1-4.38,4.32,4.05,4.05,0,0,1-2.68-.94,4.85,4.85,0,0,1-1-1.22l1.07-.76a2.72,2.72,0,0,0,.81,1,2.94,2.94,0,0,0,1.94.72,3,3,0,0,0,2.95-3.08,2.85,2.85,0,0,0-2.95-3,4,4,0,0,0-2.32.83l1.74-5.8h4.78Z"/><path class="cls-2" d="M217.38,842.47h1.47v1.23h-1.47V846H216V843.7h-6.15l7.49-10.41Zm-1.34,0v-5.31l-3.8,5.31Z"/><path class="cls-2" d="M228.37,835.18h-3.85l-.77,2.59a3.42,3.42,0,0,1,.75-.07,3.9,3.9,0,0,1,4,4.16,4.2,4.2,0,0,1-4.37,4.32,4.05,4.05,0,0,1-2.68-.94,4.85,4.85,0,0,1-1-1.22l1.06-.76a2.82,2.82,0,0,0,.81,1,3,3,0,0,0,4.9-2.36,2.85,2.85,0,0,0-2.95-3,4,4,0,0,0-2.32.83l1.74-5.8h4.77Z"/><path class="cls-2" d="M91.89,356.55l3.41-3.93c.24-.28.87-1,1.09-1.36a2.41,2.41,0,0,0,.52-1.43A1.77,1.77,0,0,0,95.05,348a1.79,1.79,0,0,0-1.56.83,2.14,2.14,0,0,0-.31,1.1h-1a2.92,2.92,0,0,1,.7-1.93,2.94,2.94,0,0,1,5.1,1.84,3.31,3.31,0,0,1-.75,2c-.39.54-.89,1.12-1.27,1.55l-2,2.2h4v.95Z"/><path class="cls-2" d="M100.77,348.19H99.2l.55-1h2.06v9.34h-1Z"/><path class="cls-2" d="M105.7,355.32a6.73,6.73,0,0,1,0-6.86,2.75,2.75,0,0,1,4.79,0,6.73,6.73,0,0,1,0,6.86,2.75,2.75,0,0,1-4.79,0Zm.78-6.27a6.27,6.27,0,0,0,0,5.68,1.77,1.77,0,0,0,3.23,0,6.27,6.27,0,0,0,0-5.68,1.77,1.77,0,0,0-3.23,0Z"/><path class="cls-2" d="M113.65,355.32a6.73,6.73,0,0,1,0-6.86,2.75,2.75,0,0,1,4.79,0,6.73,6.73,0,0,1,0,6.86,2.75,2.75,0,0,1-4.79,0Zm.79-6.27a6.19,6.19,0,0,0,0,5.68,1.77,1.77,0,0,0,3.22,0,6.27,6.27,0,0,0,0-5.68,1.77,1.77,0,0,0-3.22,0Z"/><path class="cls-2" d="M89.39,324.55l3.41-3.93c.24-.28.87-1,1.09-1.36a2.41,2.41,0,0,0,.52-1.43A1.77,1.77,0,0,0,92.55,316a1.79,1.79,0,0,0-1.56.83,2.14,2.14,0,0,0-.31,1.1h-1a2.92,2.92,0,0,1,.7-1.93,2.94,2.94,0,0,1,5.1,1.84,3.31,3.31,0,0,1-.75,2c-.39.54-.89,1.12-1.27,1.55l-2,2.2h4v.95Z"/><path class="cls-2" d="M96.81,324.55l3.41-3.93c.24-.28.87-1,1.09-1.36a2.41,2.41,0,0,0,.52-1.43A1.77,1.77,0,0,0,100,316a1.79,1.79,0,0,0-1.56.83,2.14,2.14,0,0,0-.31,1.1h-1a2.92,2.92,0,0,1,.7-1.93,2.94,2.94,0,0,1,5.1,1.84,3.31,3.31,0,0,1-.75,2c-.39.54-.89,1.12-1.27,1.55l-1.95,2.2h3.95v.95Z"/><path class="cls-2" d="M105.3,323.32a6.73,6.73,0,0,1,0-6.86,2.75,2.75,0,0,1,4.79,0,6.73,6.73,0,0,1,0,6.86,2.75,2.75,0,0,1-4.79,0Zm.78-6.27a6.27,6.27,0,0,0,0,5.68,1.77,1.77,0,0,0,3.23,0,6.27,6.27,0,0,0,0-5.68,1.77,1.77,0,0,0-3.23,0Z"/><path class="cls-2" d="M113.25,323.32a6.73,6.73,0,0,1,0-6.86,2.75,2.75,0,0,1,4.79,0,6.73,6.73,0,0,1,0,6.86,2.75,2.75,0,0,1-4.79,0Zm.79-6.27a6.19,6.19,0,0,0,0,5.68,1.77,1.77,0,0,0,3.22,0,6.27,6.27,0,0,0,0-5.68,1.77,1.77,0,0,0-3.22,0Z"/><path class="cls-2" d="M89.39,292.55l3.41-3.93c.24-.28.87-1,1.09-1.36a2.41,2.41,0,0,0,.52-1.43A1.77,1.77,0,0,0,92.55,284a1.79,1.79,0,0,0-1.56.83,2.14,2.14,0,0,0-.31,1.1h-1a2.92,2.92,0,0,1,.7-1.93,2.94,2.94,0,0,1,5.1,1.84,3.31,3.31,0,0,1-.75,2c-.39.54-.89,1.12-1.27,1.55l-2,2.2h4v.95Z"/><path class="cls-2" d="M97.32,285.52a3,3,0,0,1,.43-1.37,2.66,2.66,0,0,1,4.81,1.43,2.22,2.22,0,0,1-1.21,2.07,2.23,2.23,0,0,1,1.35,2.26,2.89,2.89,0,0,1-5.48,1.2,2.83,2.83,0,0,1-.21-1h1a2.07,2.07,0,0,0,.33.94,1.74,1.74,0,0,0,1.45.7,1.85,1.85,0,0,0,1.83-1.89,1.66,1.66,0,0,0-.92-1.57,2.49,2.49,0,0,0-1.07-.2v-.92a2,2,0,0,0,1.07-.2,1.6,1.6,0,0,0-.82-3,1.42,1.42,0,0,0-1.2.53,1.83,1.83,0,0,0-.36,1Z"/><path class="cls-2" d="M105.65,291.32a6.73,6.73,0,0,1,0-6.86,2.75,2.75,0,0,1,4.79,0,6.73,6.73,0,0,1,0,6.86,2.75,2.75,0,0,1-4.79,0Zm.78-6.27a6.27,6.27,0,0,0,0,5.68,1.77,1.77,0,0,0,3.23,0,6.27,6.27,0,0,0,0-5.68,1.77,1.77,0,0,0-3.23,0Z"/><path class="cls-2" d="M113.6,291.32a6.73,6.73,0,0,1,0-6.86,2.75,2.75,0,0,1,4.79,0,6.73,6.73,0,0,1,0,6.86,2.75,2.75,0,0,1-4.79,0Zm.79-6.27a6.19,6.19,0,0,0,0,5.68,1.77,1.77,0,0,0,3.22,0,6.27,6.27,0,0,0,0-5.68,1.77,1.77,0,0,0-3.22,0Z"/><path class="cls-2" d="M89.39,260.55l3.41-3.93c.24-.28.87-1,1.09-1.36a2.41,2.41,0,0,0,.52-1.43A1.77,1.77,0,0,0,92.55,252a1.79,1.79,0,0,0-1.56.83,2.14,2.14,0,0,0-.31,1.1h-1a2.92,2.92,0,0,1,.7-1.93,2.94,2.94,0,0,1,5.1,1.84,3.31,3.31,0,0,1-.75,2c-.39.54-.89,1.12-1.27,1.55l-2,2.2h4v.95Z"/><path class="cls-2" d="M102.05,257.84h1.15v1h-1.15v1.76h-1v-1.76H96.23l5.82-8.1Zm-1,0v-4.13l-3,4.13Z"/><path class="cls-2" d="M105.48,259.32a6.73,6.73,0,0,1,0-6.86,2.75,2.75,0,0,1,4.79,0,6.73,6.73,0,0,1,0,6.86,2.75,2.75,0,0,1-4.79,0Zm.79-6.27a6.19,6.19,0,0,0,0,5.68,1.77,1.77,0,0,0,3.22,0,6.27,6.27,0,0,0,0-5.68,1.77,1.77,0,0,0-3.22,0Z"/><path class="cls-2" d="M113.43,259.32a6.79,6.79,0,0,1,0-6.86,2.75,2.75,0,0,1,4.79,0,6.73,6.73,0,0,1,0,6.86,2.75,2.75,0,0,1-4.79,0Zm.79-6.27a6.19,6.19,0,0,0,0,5.68,1.77,1.77,0,0,0,3.22,0,6.19,6.19,0,0,0,0-5.68,1.77,1.77,0,0,0-3.22,0Z"/><path class="cls-2" d="M89.39,228.55l3.41-3.93c.24-.28.87-1,1.09-1.36a2.41,2.41,0,0,0,.52-1.43A1.77,1.77,0,0,0,92.55,220a1.79,1.79,0,0,0-1.56.83,2.14,2.14,0,0,0-.31,1.1h-1a2.92,2.92,0,0,1,.7-1.93,2.94,2.94,0,0,1,5.1,1.84,3.31,3.31,0,0,1-.75,2c-.39.54-.89,1.12-1.27,1.55l-2,2.2h4v1Z"/><path class="cls-2" d="M102.84,220.16h-3l-.6,2a2.65,2.65,0,0,1,.59-.05,3,3,0,0,1,3.08,3.23,3.27,3.27,0,0,1-3.41,3.36,3.15,3.15,0,0,1-2.08-.73,3.83,3.83,0,0,1-.82-1l.83-.59a2.2,2.2,0,0,0,.63.76,2.31,2.31,0,0,0,3.81-1.83,2.21,2.21,0,0,0-2.3-2.3,3,3,0,0,0-1.8.64l1.36-4.51h3.71Z"/><path class="cls-2" d="M105.66,227.32a6.79,6.79,0,0,1,0-6.86,2.75,2.75,0,0,1,4.79,0,6.73,6.73,0,0,1,0,6.86,2.75,2.75,0,0,1-4.79,0Zm.79-6.27a6.19,6.19,0,0,0,0,5.68,1.77,1.77,0,0,0,3.22,0,6.19,6.19,0,0,0,0-5.68,1.77,1.77,0,0,0-3.22,0Z"/><path class="cls-2" d="M113.62,227.32a6.73,6.73,0,0,1,0-6.86,2.75,2.75,0,0,1,4.79,0,6.73,6.73,0,0,1,0,6.86,2.75,2.75,0,0,1-4.79,0Zm.78-6.27a6.19,6.19,0,0,0,0,5.68,1.77,1.77,0,0,0,3.22,0,6.19,6.19,0,0,0,0-5.68,1.77,1.77,0,0,0-3.22,0Z"/><path class="cls-2" d="M89.39,196.55l3.41-3.93c.24-.28.87-1,1.09-1.36a2.41,2.41,0,0,0,.52-1.43A1.77,1.77,0,0,0,92.55,188a1.79,1.79,0,0,0-1.56.83,2.14,2.14,0,0,0-.31,1.1h-1a2.92,2.92,0,0,1,.7-1.93,2.94,2.94,0,0,1,5.1,1.84,3.31,3.31,0,0,1-.75,2c-.39.54-.89,1.12-1.27,1.55l-2,2.2h4v1Z"/><path class="cls-2" d="M101.62,187.58l-2.14,3a2.76,2.76,0,0,1,.82-.13,3,3,0,0,1,3,3.09,3.22,3.22,0,0,1-6.44,0,3.68,3.68,0,0,1,.77-2.14l3.18-4.41Zm.67,6a2.19,2.19,0,0,0-4.37,0,2.19,2.19,0,1,0,4.37,0Z"/><path class="cls-2" d="M105.66,195.32a6.79,6.79,0,0,1,0-6.86,2.75,2.75,0,0,1,4.79,0,6.73,6.73,0,0,1,0,6.86,2.75,2.75,0,0,1-4.79,0Zm.79-6.27a6.19,6.19,0,0,0,0,5.68,1.77,1.77,0,0,0,3.22,0,6.19,6.19,0,0,0,0-5.68,1.77,1.77,0,0,0-3.22,0Z"/><path class="cls-2" d="M113.62,195.32a6.73,6.73,0,0,1,0-6.86,2.75,2.75,0,0,1,4.79,0,6.73,6.73,0,0,1,0,6.86,2.75,2.75,0,0,1-4.79,0Zm.78-6.27a6.19,6.19,0,0,0,0,5.68,1.77,1.77,0,0,0,3.22,0,6.19,6.19,0,0,0,0-5.68,1.77,1.77,0,0,0-3.22,0Z"/><path class="cls-2" d="M90.73,164.55l3.4-3.93c.24-.28.87-1,1.09-1.36a2.34,2.34,0,0,0,.52-1.43,1.86,1.86,0,0,0-3.41-1,2,2,0,0,0-.31,1.1H91a3,3,0,0,1,.7-1.93,2.94,2.94,0,0,1,5.1,1.84,3.29,3.29,0,0,1-.74,2c-.39.54-.9,1.12-1.28,1.55l-1.94,2.2h4v1Z"/><path class="cls-2" d="M103.13,156.16H98v-.95h6.87l-6.25,9.57-.81-.55Z"/><path class="cls-2" d="M105.93,163.32a6.73,6.73,0,0,1,0-6.86,2.75,2.75,0,0,1,4.79,0,6.73,6.73,0,0,1,0,6.86,2.75,2.75,0,0,1-4.79,0Zm.79-6.27a6.19,6.19,0,0,0,0,5.68,1.77,1.77,0,0,0,3.22,0,6.19,6.19,0,0,0,0-5.68,1.77,1.77,0,0,0-3.22,0Z"/><path class="cls-2" d="M113.89,163.32a6.73,6.73,0,0,1,0-6.86,2.75,2.75,0,0,1,4.79,0,6.79,6.79,0,0,1,0,6.86,2.75,2.75,0,0,1-4.79,0Zm.78-6.27a6.19,6.19,0,0,0,0,5.68,1.77,1.77,0,0,0,3.22,0,6.19,6.19,0,0,0,0-5.68,1.77,1.77,0,0,0-3.22,0Z"/><path class="cls-2" d="M89.39,132.55l3.41-3.93c.24-.28.87-1,1.09-1.36a2.41,2.41,0,0,0,.52-1.43A1.77,1.77,0,0,0,92.55,124a1.79,1.79,0,0,0-1.56.83,2.14,2.14,0,0,0-.31,1.1h-1a2.92,2.92,0,0,1,.7-1.93,2.94,2.94,0,0,1,5.1,1.84,3.31,3.31,0,0,1-.75,2c-.39.54-.89,1.12-1.27,1.55l-2,2.2h4v1Z"/><path class="cls-2" d="M103,130a2.86,2.86,0,0,1-5.71,0,2.37,2.37,0,0,1,1.41-2.29,2.27,2.27,0,0,1-1.13-2,2.58,2.58,0,1,1,5.15,0,2.27,2.27,0,0,1-1.13,2A2.37,2.37,0,0,1,103,130Zm-1,0a1.82,1.82,0,0,0-3.64,0,1.82,1.82,0,0,0,3.64,0Zm-.22-4.29a1.6,1.6,0,1,0-3.19,0,1.6,1.6,0,1,0,3.19,0Z"/><path class="cls-2" d="M105.65,131.32a6.73,6.73,0,0,1,0-6.86,2.75,2.75,0,0,1,4.79,0,6.73,6.73,0,0,1,0,6.86,2.75,2.75,0,0,1-4.79,0Zm.78-6.27a6.27,6.27,0,0,0,0,5.68,1.77,1.77,0,0,0,3.23,0,6.27,6.27,0,0,0,0-5.68,1.77,1.77,0,0,0-3.23,0Z"/><path class="cls-2" d="M113.6,131.32a6.73,6.73,0,0,1,0-6.86,2.75,2.75,0,0,1,4.79,0,6.73,6.73,0,0,1,0,6.86,2.75,2.75,0,0,1-4.79,0Zm.79-6.27a6.19,6.19,0,0,0,0,5.68,1.77,1.77,0,0,0,3.22,0,6.27,6.27,0,0,0,0-5.68,1.77,1.77,0,0,0-3.22,0Z"/><rect class="cls-4" x="930.11" y="343.88" width="50" height="678.5"/><rect class="cls-5" x="880.11" y="890.41" width="50" height="131.97"/><rect class="cls-6" x="830.11" y="1018.91" width="50" height="3.47"/><rect class="cls-4" x="700.11" y="425.41" width="50" height="596.97"/><rect class="cls-5" x="650.11" y="906.91" width="50" height="115.47"/><rect class="cls-6" x="600.11" y="1018.91" width="50" height="3.47"/><rect class="cls-4" x="470.11" y="432.41" width="50" height="589.47"/><rect class="cls-5" x="420.11" y="910.41" width="50" height="111.47"/><rect class="cls-6" x="370.11" y="1018.41" width="50" height="3.47"/><rect class="cls-4" x="240.11" y="177.08" width="50" height="845.3"/><rect class="cls-5" x="190.11" y="849.74" width="50" height="172.63"/><rect class="cls-6" x="140.11" y="1015.39" width="50" height="6.99"/><path class="cls-2" d="M849.08,1049.28v0a6.34,6.34,0,0,1,6.37-6.52,6.54,6.54,0,0,1,4.91,2l-1,1a5.47,5.47,0,0,0-4-1.73,4.94,4.94,0,0,0-4.88,5.17v0a5,5,0,0,0,4.88,5.2,5.49,5.49,0,0,0,4.07-1.82l.94.92a6.59,6.59,0,0,1-5.05,2.21A6.28,6.28,0,0,1,849.08,1049.28Z"/><path class="cls-2" d="M863.4,1046.24h1.39v2.43a4,4,0,0,1,3.8-2.59v1.49h-.11c-2,0-3.69,1.46-3.69,4.27v3.71H863.4Z"/><path class="cls-2" d="M870.26,1052.85v0c0-2,1.62-3,4-3a9.94,9.94,0,0,1,2.86.4v-.32c0-1.68-1-2.54-2.77-2.54a6.6,6.6,0,0,0-2.83.68l-.41-1.13a7.65,7.65,0,0,1,3.38-.78,4.1,4.1,0,0,1,3,1,3.68,3.68,0,0,1,1,2.72v5.69H877.1v-1.41a4,4,0,0,1-3.36,1.61C872,1055.75,870.26,1054.76,870.26,1052.85Zm6.86-.72v-.9a9.59,9.59,0,0,0-2.74-.4c-1.74,0-2.71.76-2.71,1.93v0c0,1.17,1.08,1.86,2.34,1.86C875.72,1054.65,877.12,1053.6,877.12,1052.13Z"/><path class="cls-2" d="M882.11,1046.24h1.38v1.87a4.21,4.21,0,0,1,3.57-2.07,4.54,4.54,0,0,1,4.44,4.83v0a4.55,4.55,0,0,1-4.44,4.85,4.22,4.22,0,0,1-3.57-2v4.66h-1.38Zm8,4.68v0a3.36,3.36,0,0,0-3.28-3.61,3.47,3.47,0,0,0-3.36,3.59v0a3.46,3.46,0,0,0,3.36,3.6A3.28,3.28,0,0,0,890.08,1050.92Z"/><path class="cls-2" d="M894.2,1050.92v0a4.59,4.59,0,0,1,4.47-4.85c2.75,0,4.34,2.2,4.34,4.92a3.31,3.31,0,0,1,0,.45h-7.38a3.25,3.25,0,0,0,3.27,3.15,3.84,3.84,0,0,0,2.94-1.32l.86.78a4.8,4.8,0,0,1-3.83,1.74A4.63,4.63,0,0,1,894.2,1050.92Zm7.4-.54c-.14-1.69-1.12-3.17-3-3.17a3.21,3.21,0,0,0-3,3.17Z"/><path class="cls-2" d="M906.15,1046.24h1.39v1.57a3.4,3.4,0,0,1,3-1.77,3.17,3.17,0,0,1,3,1.86,3.69,3.69,0,0,1,3.27-1.86c2.15,0,3.46,1.44,3.46,3.75v5.76h-1.39v-5.44c0-1.8-.9-2.81-2.41-2.81a2.6,2.6,0,0,0-2.56,2.88v5.37h-1.38v-5.48c0-1.74-.92-2.77-2.4-2.77a2.7,2.7,0,0,0-2.59,2.94v5.31h-1.39Z"/><path class="cls-2" d="M930.69,1046.24h1.48l-3.91,9.61c-.79,1.93-1.69,2.63-3.1,2.63a4.31,4.31,0,0,1-2-.46l.47-1.1a3,3,0,0,0,1.46.34c.83,0,1.35-.43,1.91-1.75l-4.23-9.27h1.53l3.38,7.76Z"/><path class="cls-2" d="M935.08,1046.24h1.39v2.43a4,4,0,0,1,3.8-2.59v1.49h-.11c-2,0-3.69,1.46-3.69,4.27v3.71h-1.39Z"/><path class="cls-2" d="M943.58,1053.08v-5.62h-1.3v-1.22h1.3v-2.81H945v2.81h3v1.22h-3v5.44a1.38,1.38,0,0,0,1.57,1.55,3,3,0,0,0,1.35-.32v1.18a3.42,3.42,0,0,1-1.68.4A2.37,2.37,0,0,1,943.58,1053.08Z"/><path class="cls-2" d="M951.21,1042.41h1.38v13.14h-1.38Z"/><path class="cls-2" d="M956,1050.92v0a4.59,4.59,0,0,1,4.46-4.85c2.76,0,4.34,2.2,4.34,4.92,0,.18,0,.28,0,.45h-7.39a3.26,3.26,0,0,0,3.28,3.15,3.84,3.84,0,0,0,2.94-1.32l.86.78a4.82,4.82,0,0,1-3.84,1.74A4.62,4.62,0,0,1,956,1050.92Zm7.4-.54c-.15-1.69-1.12-3.17-3-3.17a3.21,3.21,0,0,0-3,3.17Z"/><path class="cls-2" d="M610.84,1042.86h1.33l5.75,12.69h-1.54l-1.47-3.33h-6.86l-1.5,3.33h-1.46Zm3.51,8.06-2.86-6.41-2.88,6.41Z"/><path class="cls-2" d="M620.88,1046.24h1.39v1.57a3.4,3.4,0,0,1,3-1.77,3.15,3.15,0,0,1,3,1.86,3.72,3.72,0,0,1,3.28-1.86c2.14,0,3.46,1.44,3.46,3.75v5.76h-1.39v-5.44c0-1.8-.9-2.81-2.41-2.81a2.6,2.6,0,0,0-2.56,2.88v5.37h-1.39v-5.48c0-1.74-.91-2.77-2.39-2.77a2.7,2.7,0,0,0-2.59,2.94v5.31h-1.39Z"/><path class="cls-2" d="M638.14,1050.92v0a4.59,4.59,0,0,1,4.47-4.85c2.75,0,4.34,2.2,4.34,4.92a3.31,3.31,0,0,1,0,.45h-7.38a3.25,3.25,0,0,0,3.27,3.15,3.84,3.84,0,0,0,2.94-1.32l.86.78a4.8,4.8,0,0,1-3.83,1.74A4.63,4.63,0,0,1,638.14,1050.92Zm7.4-.54c-.14-1.69-1.11-3.17-3-3.17a3.21,3.21,0,0,0-3,3.17Z"/><path class="cls-2" d="M650.1,1046.24h1.38v2.43a4,4,0,0,1,3.8-2.59v1.49h-.11c-2,0-3.69,1.46-3.69,4.27v3.71H650.1Z"/><path class="cls-2" d="M658.14,1042.67h1.59v1.53h-1.59Zm.09,3.57h1.39v9.31h-1.39Z"/><path class="cls-2" d="M663,1050.94v0a4.85,4.85,0,0,1,8.5-3.2l-.92,1a3.76,3.76,0,0,0-2.82-1.4,3.43,3.43,0,0,0-3.34,3.6v0a3.48,3.48,0,0,0,3.43,3.62,3.85,3.85,0,0,0,2.84-1.38l.88.82a4.82,4.82,0,0,1-8.57-3Z"/><path class="cls-2" d="M673.86,1052.85v0c0-2,1.62-3,4-3a10.07,10.07,0,0,1,2.87.4v-.32c0-1.68-1-2.54-2.78-2.54a6.55,6.55,0,0,0-2.82.68l-.42-1.13a7.7,7.7,0,0,1,3.39-.78,4.13,4.13,0,0,1,3,1,3.67,3.67,0,0,1,.95,2.72v5.69H680.7v-1.41a4.08,4.08,0,0,1-3.37,1.61C675.6,1055.75,673.86,1054.76,673.86,1052.85Zm6.85-.72v-.9a9.57,9.57,0,0,0-2.73-.4c-1.75,0-2.72.76-2.72,1.93v0c0,1.17,1.08,1.86,2.34,1.86C679.31,1054.65,680.71,1053.6,680.71,1052.13Z"/><path class="cls-2" d="M685.7,1046.24h1.38v1.62a3.54,3.54,0,0,1,3.19-1.82,3.4,3.4,0,0,1,3.57,3.73v5.78h-1.39v-5.44c0-1.73-.94-2.81-2.57-2.81a2.74,2.74,0,0,0-2.8,2.92v5.33H685.7Z"/><path class="cls-2" d="M703.86,1043H713v1.29h-7.69v4.3h6.88v1.3h-6.88v4.41h7.78v1.3h-9.2Z"/><path class="cls-2" d="M716.53,1042.41h1.39v13.14h-1.39Z"/><path class="cls-2" d="M721.86,1046.24h1.39v1.57a3.4,3.4,0,0,1,3-1.77,3.16,3.16,0,0,1,3,1.86,3.72,3.72,0,0,1,3.28-1.86c2.14,0,3.46,1.44,3.46,3.75v5.76h-1.39v-5.44c0-1.8-.9-2.81-2.41-2.81a2.6,2.6,0,0,0-2.56,2.88v5.37h-1.39v-5.48c0-1.74-.92-2.77-2.39-2.77a2.7,2.7,0,0,0-2.59,2.94v5.31h-1.39Z"/><path class="cls-2" d="M412.3,1044.26h-4.23V1043H418v1.31h-4.23v11.29H412.3Z"/><path class="cls-2" d="M419.41,1052v-5.78h1.39v5.44c0,1.73.94,2.81,2.58,2.81a2.75,2.75,0,0,0,2.79-2.92v-5.33h1.36v9.31h-1.36v-1.62a3.55,3.55,0,0,1-3.19,1.82A3.41,3.41,0,0,1,419.41,1052Z"/><path class="cls-2" d="M431.49,1042.41h1.39v13.14h-1.39Z"/><path class="cls-2" d="M436.86,1042.67h1.58v1.53h-1.58Zm.09,3.57h1.38v9.31H437Z"/><path class="cls-2" d="M442.27,1046.24h1.39v1.87a4.2,4.2,0,0,1,3.56-2.07,4.54,4.54,0,0,1,4.45,4.83v0a4.56,4.56,0,0,1-4.45,4.85,4.21,4.21,0,0,1-3.56-2v4.66h-1.39Zm8,4.68v0a3.36,3.36,0,0,0-3.28-3.61,3.47,3.47,0,0,0-3.36,3.59v0a3.46,3.46,0,0,0,3.36,3.6A3.29,3.29,0,0,0,450.25,1050.92Z"/><path class="cls-2" d="M455.43,1053.08v-5.62h-1.3v-1.22h1.3v-2.81h1.39v2.81h2.95v1.22h-2.95v5.44a1.37,1.37,0,0,0,1.56,1.55,2.94,2.94,0,0,0,1.35-.32v1.18a3.35,3.35,0,0,1-1.67.4A2.37,2.37,0,0,1,455.43,1053.08Z"/><path class="cls-2" d="M462.94,1046.24h1.38v2.43a4,4,0,0,1,3.8-2.59v1.49H468c-2,0-3.69,1.46-3.69,4.27v3.71h-1.38Z"/><path class="cls-2" d="M470,1050.92v0a4.59,4.59,0,0,1,4.46-4.85c2.76,0,4.34,2.2,4.34,4.92a3.31,3.31,0,0,1,0,.45h-7.38a3.26,3.26,0,0,0,3.28,3.15,3.81,3.81,0,0,0,2.93-1.32l.87.78a4.82,4.82,0,0,1-3.84,1.74A4.62,4.62,0,0,1,470,1050.92Zm7.4-.54c-.15-1.69-1.12-3.17-3-3.17a3.21,3.21,0,0,0-3,3.17Z"/><path class="cls-2" d="M481.35,1050.92v0a4.59,4.59,0,0,1,4.47-4.85c2.75,0,4.34,2.2,4.34,4.92a3.31,3.31,0,0,1,0,.45h-7.38a3.25,3.25,0,0,0,3.27,3.15,3.84,3.84,0,0,0,2.94-1.32l.86.78a4.8,4.8,0,0,1-3.83,1.74A4.63,4.63,0,0,1,481.35,1050.92Zm7.4-.54c-.14-1.69-1.12-3.17-3-3.17a3.21,3.21,0,0,0-3,3.17Z"/><path class="cls-2" d="M142.83,1042.86h1.33l5.74,12.69h-1.53l-1.47-3.33H140l-1.5,3.33h-1.46Zm3.51,8.06-2.86-6.41-2.89,6.41Z"/><path class="cls-2" d="M152.87,1046.24h1.39v1.57a3.4,3.4,0,0,1,3-1.77,3.16,3.16,0,0,1,3,1.86,3.72,3.72,0,0,1,3.28-1.86c2.14,0,3.46,1.44,3.46,3.75v5.76H165.6v-5.44c0-1.8-.9-2.81-2.41-2.81a2.6,2.6,0,0,0-2.56,2.88v5.37h-1.39v-5.48c0-1.74-.92-2.77-2.39-2.77a2.7,2.7,0,0,0-2.59,2.94v5.31h-1.39Z"/><path class="cls-2" d="M170.13,1050.92v0a4.59,4.59,0,0,1,4.47-4.85c2.75,0,4.34,2.2,4.34,4.92a3.31,3.31,0,0,1,0,.45h-7.38a3.25,3.25,0,0,0,3.27,3.15,3.84,3.84,0,0,0,2.94-1.32l.86.78a4.81,4.81,0,0,1-3.83,1.74A4.63,4.63,0,0,1,170.13,1050.92Zm7.4-.54c-.14-1.69-1.12-3.17-3-3.17a3.2,3.2,0,0,0-3,3.17Z"/><path class="cls-2" d="M182.08,1046.24h1.39v2.43a4,4,0,0,1,3.8-2.59v1.49h-.11c-2,0-3.69,1.46-3.69,4.27v3.71h-1.39Z"/><path class="cls-2" d="M190.13,1042.67h1.58v1.53h-1.58Zm.09,3.57h1.38v9.31h-1.38Z"/><path class="cls-2" d="M195,1050.94v0a4.85,4.85,0,0,1,8.5-3.2l-.92,1a3.78,3.78,0,0,0-2.83-1.4,3.43,3.43,0,0,0-3.33,3.6v0a3.48,3.48,0,0,0,3.42,3.62,3.85,3.85,0,0,0,2.85-1.38l.88.82a4.82,4.82,0,0,1-8.57-3Z"/><path class="cls-2" d="M205.84,1052.85v0c0-2,1.62-3,4-3a9.94,9.94,0,0,1,2.86.4v-.32c0-1.68-1-2.54-2.77-2.54a6.6,6.6,0,0,0-2.83.68l-.41-1.13a7.67,7.67,0,0,1,3.39-.78,4.09,4.09,0,0,1,3,1,3.68,3.68,0,0,1,1,2.72v5.69h-1.34v-1.41a4,4,0,0,1-3.36,1.61C207.59,1055.75,205.84,1054.76,205.84,1052.85Zm6.86-.72v-.9a9.59,9.59,0,0,0-2.74-.4c-1.74,0-2.71.76-2.71,1.93v0c0,1.17,1.08,1.86,2.34,1.86C211.3,1054.65,212.7,1053.6,212.7,1052.13Z"/><path class="cls-2" d="M217.69,1046.24h1.38v1.62a3.53,3.53,0,0,1,3.19-1.82,3.4,3.4,0,0,1,3.56,3.73v5.78h-1.38v-5.44c0-1.73-.94-2.81-2.58-2.81a2.74,2.74,0,0,0-2.79,2.92v5.33h-1.38Z"/><path class="cls-2" d="M235.85,1043h5.36a4.65,4.65,0,0,1,3.3,1.11,2.82,2.82,0,0,1,.81,2v0a3,3,0,0,1-2,2.92c1.49.45,2.7,1.32,2.7,3v0c0,2.16-1.82,3.44-4.57,3.44h-5.6Zm8,3.33c0-1.25-1-2.06-2.79-2.06h-3.84v4.34H241c1.71,0,2.9-.77,2.9-2.25Zm-2.65,3.54h-4v4.45h4.23c1.91,0,3.1-.85,3.1-2.25v0C244.58,1050.61,243.43,1049.82,241.23,1049.82Z"/><path class="cls-2" d="M248.75,1050.92v0a4.59,4.59,0,0,1,4.47-4.85c2.75,0,4.34,2.2,4.34,4.92a3.31,3.31,0,0,1,0,.45h-7.38a3.26,3.26,0,0,0,3.28,3.15,3.84,3.84,0,0,0,2.93-1.32l.86.78a4.8,4.8,0,0,1-3.83,1.74A4.63,4.63,0,0,1,248.75,1050.92Zm7.4-.54c-.14-1.69-1.11-3.17-3-3.17a3.21,3.21,0,0,0-3,3.17Z"/><path class="cls-2" d="M260.13,1050.92v0a4.59,4.59,0,0,1,4.46-4.85c2.76,0,4.34,2.2,4.34,4.92,0,.18,0,.28,0,.45h-7.39a3.26,3.26,0,0,0,3.28,3.15,3.84,3.84,0,0,0,2.94-1.32l.86.78a4.82,4.82,0,0,1-3.84,1.74A4.62,4.62,0,0,1,260.13,1050.92Zm7.4-.54c-.14-1.69-1.12-3.17-3-3.17a3.21,3.21,0,0,0-3,3.17Z"/><path class="cls-2" d="M271.5,1050.94v0a4.85,4.85,0,0,1,8.5-3.2l-.91,1a3.78,3.78,0,0,0-2.83-1.4,3.43,3.43,0,0,0-3.33,3.6v0a3.47,3.47,0,0,0,3.42,3.62,3.82,3.82,0,0,0,2.84-1.38l.89.82a4.82,4.82,0,0,1-8.58-3Z"/><path class="cls-2" d="M283.08,1042.41h1.39v5.45a3.51,3.51,0,0,1,3.18-1.82,3.4,3.4,0,0,1,3.57,3.73v5.78h-1.39v-5.44c0-1.73-.94-2.81-2.57-2.81a2.73,2.73,0,0,0-2.79,2.92v5.33h-1.39Z"/><path d="M26.17,750.73h0a7.08,7.08,0,0,1-7.24-7.22A7.3,7.3,0,0,1,21.07,738l1.82,1.58a5.57,5.57,0,0,0-1.74,3.92,4.71,4.71,0,0,0,4.94,4.62h0a4.72,4.72,0,0,0,5-4.62,5.47,5.47,0,0,0-1.8-4l1.6-1.58a7.22,7.22,0,0,1,2.48,5.68A7,7,0,0,1,26.17,750.73Z"/><path d="M19,728.89v-2.28l14.1-6.16v2.6l-3.38,1.42v6.62l3.38,1.44v2.52Zm8.54-3.52L22,727.79l5.6,2.4Z"/><path d="M19.13,716.55v-6.24a5.64,5.64,0,0,1,1.4-4,4.23,4.23,0,0,1,3-1.16h0a4.2,4.2,0,0,1,4.24,3.32l5.3-3.78v2.92L28.25,711v3.08h4.88v2.46Zm6.94-6.06c0-1.76-.92-2.88-2.34-2.88h0c-1.5,0-2.32,1.08-2.32,2.9v3.58h4.7Z"/><path d="M19.13,700.59v-6.28a5.05,5.05,0,0,1,1.24-3.66,3.14,3.14,0,0,1,2.32-.94h0a3.33,3.33,0,0,1,3.12,2c.56-1.64,1.5-2.78,3.4-2.78h0c2.5,0,3.84,2.06,3.84,5.18v6.48Zm4-8.42c-1.1,0-1.78.88-1.78,2.46v3.54H25v-3.36c0-1.58-.62-2.64-1.9-2.64Zm4,2.1v3.9H31v-4.08c0-1.68-.66-2.7-1.92-2.7h0C27.81,691.39,27.11,692.33,27.11,694.27Z"/><path d="M26.17,685.28h0a7.33,7.33,0,0,1,0-14.65h0a7.33,7.33,0,0,1,0,14.65Zm0-12.07h0a4.8,4.8,0,0,0-5,4.76,4.74,4.74,0,0,0,4.94,4.73h0a4.79,4.79,0,0,0,5-4.77A4.71,4.71,0,0,0,26.17,673.21Z"/><path d="M19.13,666.16v-2.29l9.68-7.5H19.13V654h14V656l-10,7.73h10v2.42Z"/><path d="M31.09,642.3l-1.76-1.48a6.5,6.5,0,0,0,1.82-4.42c0-1.53-.72-2.49-1.76-2.49h0c-1,0-1.54.56-2.14,3.16-.72,3-1.6,4.67-4.18,4.67h0c-2.4,0-4.06-2-4.06-4.79a7.76,7.76,0,0,1,1.76-5.08l1.86,1.32a6.38,6.38,0,0,0-1.44,3.8c0,1.45.74,2.29,1.66,2.29h0c1.08,0,1.56-.64,2.2-3.35.72-3,1.78-4.48,4.1-4.48h0c2.62,0,4.18,2.06,4.18,5A8.63,8.63,0,0,1,31.09,642.3Z"/><path d="M21.41,623.92v4.44H19.13V617h2.28v4.44H33.13v2.49Z"/><path d="M26.17,614.28h0a7.33,7.33,0,0,1,0-14.65h0a7.33,7.33,0,0,1,0,14.65Zm0-12.07h0a4.8,4.8,0,0,0-5,4.76,4.73,4.73,0,0,0,4.94,4.73h0a4.78,4.78,0,0,0,5-4.77A4.71,4.71,0,0,0,26.17,602.21Z"/><path d="M19.13,595.16v-6.24a5.65,5.65,0,0,1,1.4-4,4.23,4.23,0,0,1,3-1.16h0A4.2,4.2,0,0,1,27.83,587l5.3-3.78v2.92l-4.88,3.44v3.09h4.88v2.46Zm6.94-6.07c0-1.76-.92-2.88-2.34-2.88h0c-1.5,0-2.32,1.08-2.32,2.9v3.59h4.7Z"/><path d="M19,574.24V572l14.1-6.16v2.6l-3.38,1.42v6.63l3.38,1.44v2.52Zm8.54-3.53L22,573.13l5.6,2.41Z"/><path d="M26.17,563.4h0a7.13,7.13,0,0,1-7.24-7.23,7.56,7.56,0,0,1,1.9-5.38l1.86,1.56a5.48,5.48,0,0,0-1.5,3.92,4.74,4.74,0,0,0,4.94,4.55h0a4.68,4.68,0,0,0,5-4.77,5.72,5.72,0,0,0-1.06-3.38H27.45v3.58H25.31v-6h5.88a8.93,8.93,0,0,1,2.18,5.84A7,7,0,0,1,26.17,563.4Z"/><path d="M19.13,545.6V535.21h2.2v7.93H25v-7h2.2v7h3.76v-8h2.2V545.6Z"/><path d="M27.39,523.74c-3.78,0-6.56-1.9-8.56-5.54l1.62-1.06c1.88,2.84,4,4.18,6.94,4.18s5-1.34,6.94-4.18L36,518.2C34,521.84,31.17,523.74,27.39,523.74Z"/><path d="M19.13,512.88v-2.46H30.89v-7.36h2.24v9.82Z"/><path d="M19.13,499v-6.28a5.05,5.05,0,0,1,1.24-3.66,3.14,3.14,0,0,1,2.32-.94h0a3.33,3.33,0,0,1,3.12,2c.56-1.64,1.5-2.78,3.4-2.78h0c2.5,0,3.84,2.06,3.84,5.18V499Zm4-8.42c-1.1,0-1.78.88-1.78,2.46v3.54H25v-3.36c0-1.58-.62-2.64-1.9-2.64Zm4,2.1v3.9H31V492.5c0-1.68-.66-2.7-1.92-2.7h0C27.81,489.8,27.11,490.74,27.11,492.68Z"/><path d="M31.09,484l-1.76-1.48a6.48,6.48,0,0,0,1.82-4.42c0-1.52-.72-2.48-1.76-2.48h0c-1,0-1.54.56-2.14,3.16-.72,3-1.6,4.66-4.18,4.66h0c-2.4,0-4.06-2-4.06-4.78a7.76,7.76,0,0,1,1.76-5.08l1.86,1.32a6.36,6.36,0,0,0-1.44,3.8c0,1.44.74,2.28,1.66,2.28h0c1.08,0,1.56-.64,2.2-3.34.72-3,1.78-4.48,4.1-4.48h0c2.62,0,4.18,2.06,4.18,5A8.62,8.62,0,0,1,31.09,484Z"/><path d="M34.33,469.6c-1.9-2.84-4-4.18-6.94-4.18s-5.06,1.34-6.94,4.18l-1.62-1.06c2-3.64,4.78-5.54,8.56-5.54S34,464.9,36,468.54Z"/><path d="M427.62,1117.05h-4.44v-2.28h11.36v2.28H430.1v11.72h-2.48Z"/><path d="M438.64,1114.77h6.24a5.64,5.64,0,0,1,4,1.4,4.23,4.23,0,0,1,1.16,3v0a4.2,4.2,0,0,1-3.32,4.24l3.78,5.3h-2.92l-3.44-4.88H441.1v4.88h-2.46Zm6.06,6.94c1.76,0,2.88-.92,2.88-2.34v0c0-1.5-1.08-2.32-2.9-2.32H441.1v4.7Z"/><path d="M454.6,1114.77H465v2.2h-7.92v3.64h7v2.2h-7v3.76h8v2.2H454.6Z"/><path d="M469.5,1114.77h10.38v2.2H472v3.64h7v2.2h-7v3.76h8v2.2H469.5Z"/><path d="M491,1126.73l1.48-1.76a6.48,6.48,0,0,0,4.42,1.82c1.52,0,2.48-.72,2.48-1.76v0c0-1-.56-1.54-3.16-2.14-3-.72-4.66-1.6-4.66-4.18v0c0-2.4,2-4.06,4.78-4.06a7.76,7.76,0,0,1,5.08,1.76l-1.32,1.86a6.36,6.36,0,0,0-3.8-1.44c-1.44,0-2.28.74-2.28,1.66v0c0,1.08.64,1.56,3.34,2.2,3,.72,4.48,1.78,4.48,4.1v0c0,2.62-2.06,4.18-5,4.18A8.62,8.62,0,0,1,491,1126.73Z"/><path d="M506.2,1114.77h5.52c3.28,0,5.32,1.86,5.32,4.68v0c0,3.14-2.52,4.78-5.6,4.78h-2.78v4.5H506.2Zm5.32,7.28c1.86,0,3-1,3-2.5v0c0-1.64-1.18-2.5-3-2.5h-2.86v5Z"/><path d="M521.06,1114.77h10.38v2.2h-7.92v3.64h7v2.2h-7v3.76h8v2.2H521.06Z"/><path d="M535.34,1121.81v0a7.08,7.08,0,0,1,7.22-7.24,7.3,7.3,0,0,1,5.48,2.18l-1.58,1.82a5.57,5.57,0,0,0-3.92-1.74,4.71,4.71,0,0,0-4.62,4.94v0a4.72,4.72,0,0,0,4.62,5,5.47,5.47,0,0,0,4-1.8l1.58,1.6a7.22,7.22,0,0,1-5.68,2.48A7,7,0,0,1,535.34,1121.81Z"/><path d="M552.36,1114.77h2.46v14h-2.46Z"/><path d="M560.06,1114.77h10.38v2.2h-7.92v3.64h7v2.2h-7v3.76h8v2.2H560.06Z"/><path d="M574,1126.73l1.48-1.76a6.48,6.48,0,0,0,4.42,1.82c1.52,0,2.48-.72,2.48-1.76v0c0-1-.56-1.54-3.16-2.14-3-.72-4.66-1.6-4.66-4.18v0c0-2.4,2-4.06,4.78-4.06a7.76,7.76,0,0,1,5.08,1.76l-1.32,1.86a6.36,6.36,0,0,0-3.8-1.44c-1.44,0-2.28.74-2.28,1.66v0c0,1.08.64,1.56,3.34,2.2,3,.72,4.48,1.78,4.48,4.1v0c0,2.62-2.06,4.18-5,4.18A8.62,8.62,0,0,1,574,1126.73Z"/><path d="M182.49,49.06l4.34-3.69c1.73-1.48,2.36-2.27,2.36-3.41a1.89,1.89,0,0,0-2-2c-1.16,0-1.95.63-2.9,1.89l-1.59-1.24c1.21-1.68,2.4-2.63,4.65-2.63,2.47,0,4.16,1.51,4.16,3.76v0c0,2-1,3.06-3.28,4.88l-2.59,2.16h6V50.8h-9.11Z"/><path d="M202.49,38.2h2.22V50.8h-2.22Z"/><path d="M209.42,38.2h2.05l6.76,8.71V38.2h2.17V50.8h-1.85l-7-9v9h-2.18Z"/><path d="M224.43,44.54v0a6.39,6.39,0,0,1,6.5-6.52,6.55,6.55,0,0,1,4.94,2l-1.43,1.63A5,5,0,0,0,230.92,40a4.24,4.24,0,0,0-4.16,4.45v0A4.24,4.24,0,0,0,230.92,49a5,5,0,0,0,3.61-1.62L236,48.79A6.52,6.52,0,0,1,230.84,51,6.34,6.34,0,0,1,224.43,44.54Z"/><path d="M239.63,38.2h2.21v5.24h6V38.2h2.22V50.8h-2.22V45.49h-6V50.8h-2.21Z"/><path d="M261.4,38.2h4.7c4,0,6.7,2.72,6.7,6.27v0c0,3.55-2.73,6.3-6.7,6.3h-4.7Zm2.22,2v8.57h2.48a4.11,4.11,0,0,0,4.38-4.25v0a4.13,4.13,0,0,0-4.38-4.28Z"/><path d="M277,38.2h2.21V50.8H277Z"/><path d="M288.35,38.11h2L296,50.8h-2.34l-1.28-3h-6l-1.3,3h-2.26Zm3.17,7.69-2.18-5-2.16,5Z"/><path d="M299.46,38.2h2.35l3.84,6,3.83-6h2.36V50.8h-2.21v-9l-4,6h-.07l-3.95-5.91v9h-2.17Z"/><path d="M316.43,38.2h9.34v2h-7.13v3.28H325v2h-6.32v3.38h7.22v2h-9.43Z"/><path d="M332.94,40.25h-4v-2h10.23v2h-4V50.8h-2.23Z"/><path d="M342.85,38.2h9.35v2h-7.13v3.28h6.32v2h-6.32v3.38h7.22v2h-9.44Z"/><path d="M356.26,38.2h5.62a5.09,5.09,0,0,1,3.64,1.26,3.83,3.83,0,0,1,1,2.72v0a3.77,3.77,0,0,1-3,3.81L367,50.8h-2.63l-3.1-4.39h-2.77V50.8h-2.22Zm5.46,6.25c1.58,0,2.59-.83,2.59-2.11v0c0-1.35-1-2.08-2.61-2.08h-3.22v4.23Z"/><circle class="cls-6" cx="140.93" cy="44.48" r="27.48"/><path d="M488.12,40.36l-2.27.63-.47-1.8,3.4-1.08h1.53V50.8h-2.19Z"/><path d="M494.27,49.06l4.34-3.69C500.34,43.89,501,43.1,501,42a1.89,1.89,0,0,0-2-2c-1.16,0-1.95.63-2.9,1.89l-1.59-1.24C495.66,39,496.85,38,499.1,38c2.46,0,4.16,1.51,4.16,3.76v0c0,2-1.05,3.06-3.28,4.88l-2.59,2.16h6V50.8h-9.11Z"/><path d="M514.27,38.2h2.21V50.8h-2.21Z"/><path d="M521.2,38.2h2L530,46.91V38.2h2.18V50.8h-1.85l-7-9v9H521.2Z"/><path d="M536.21,44.54v0a6.38,6.38,0,0,1,6.5-6.52,6.53,6.53,0,0,1,4.93,2l-1.42,1.63A5,5,0,0,0,542.69,40a4.25,4.25,0,0,0-4.16,4.45v0A4.25,4.25,0,0,0,542.69,49a5,5,0,0,0,3.62-1.62l1.42,1.44A6.48,6.48,0,0,1,542.62,51,6.34,6.34,0,0,1,536.21,44.54Z"/><path d="M551.4,38.2h2.22v5.24h6V38.2h2.22V50.8h-2.22V45.49h-6V50.8H551.4Z"/><path d="M573.18,38.2h4.7c4,0,6.7,2.72,6.7,6.27v0c0,3.55-2.74,6.3-6.7,6.3h-4.7Zm2.22,2v8.57h2.48a4.11,4.11,0,0,0,4.38-4.25v0a4.13,4.13,0,0,0-4.38-4.28Z"/><path d="M588.73,38.2H591V50.8h-2.22Z"/><path d="M600.13,38.11h2l5.55,12.69h-2.34l-1.28-3h-6l-1.3,3h-2.27Zm3.17,7.69-2.18-5-2.16,5Z"/><path d="M611.23,38.2h2.36l3.84,6,3.83-6h2.36V50.8h-2.21v-9l-4,6h-.07l-4-5.91v9h-2.18Z"/><path d="M628.21,38.2h9.34v2h-7.13v3.28h6.32v2h-6.32v3.38h7.22v2h-9.43Z"/><path d="M644.71,40.25h-4v-2h10.22v2h-4V50.8h-2.24Z"/><path d="M654.63,38.2H664v2h-7.13v3.28h6.32v2h-6.32v3.38h7.22v2h-9.44Z"/><path d="M668,38.2h5.62a5.1,5.1,0,0,1,3.64,1.26,3.83,3.83,0,0,1,1,2.72v0a3.77,3.77,0,0,1-3,3.81l3.4,4.77h-2.62L673,46.41h-2.77V50.8H668Zm5.46,6.25c1.58,0,2.59-.83,2.59-2.11v0c0-1.35-1-2.08-2.61-2.08h-3.22v4.23Z"/><circle class="cls-5" cx="446.35" cy="43.99" r="27.48"/><path d="M798.09,49.06l4.34-3.69c1.73-1.48,2.36-2.27,2.36-3.41a1.89,1.89,0,0,0-2-2c-1.16,0-2,.63-2.9,1.89l-1.59-1.24c1.21-1.68,2.4-2.63,4.65-2.63,2.46,0,4.16,1.51,4.16,3.76v0c0,2-1.05,3.06-3.28,4.88l-2.59,2.16h6V50.8h-9.11Z"/><path d="M816.65,48H810.3l-.42-1.59,7-8.28h1.89v8h1.8V48h-1.8V50.8h-2.13Zm0-1.82v-5l-4.14,5Z"/><path d="M831.36,38.2h2.21V50.8h-2.21Z"/><path d="M838.29,38.2h2.05l6.75,8.71V38.2h2.18V50.8h-1.85l-7-9v9h-2.17Z"/><path d="M853.3,44.54v0A6.38,6.38,0,0,1,859.8,38a6.55,6.55,0,0,1,4.93,2l-1.42,1.63A5,5,0,0,0,859.78,40a4.24,4.24,0,0,0-4.16,4.45v0A4.25,4.25,0,0,0,859.78,49a5,5,0,0,0,3.62-1.62l1.42,1.44A6.48,6.48,0,0,1,859.71,51,6.33,6.33,0,0,1,853.3,44.54Z"/><path d="M868.49,38.2h2.21v5.24h6V38.2h2.21V50.8h-2.21V45.49h-6V50.8h-2.21Z"/><path d="M890.27,38.2H895c4,0,6.7,2.72,6.7,6.27v0c0,3.55-2.74,6.3-6.7,6.3h-4.7Zm2.21,2v8.57H895a4.11,4.11,0,0,0,4.37-4.25v0A4.12,4.12,0,0,0,895,40.22Z"/><path d="M905.82,38.2H908V50.8h-2.22Z"/><path d="M917.22,38.11h2l5.55,12.69h-2.35l-1.27-3h-6l-1.3,3h-2.27Zm3.17,7.69-2.18-5-2.16,5Z"/><path d="M928.32,38.2h2.36l3.83,6,3.84-6h2.36V50.8h-2.22v-9l-4,6h-.07L930.5,41.8v9h-2.18Z"/><path d="M945.29,38.2h9.35v2h-7.13v3.28h6.32v2h-6.32v3.38h7.22v2h-9.44Z"/><path d="M961.8,40.25h-4v-2H968v2h-4V50.8H961.8Z"/><path d="M971.72,38.2h9.34v2h-7.13v3.28h6.32v2h-6.32v3.38h7.22v2h-9.43Z"/><path d="M985.13,38.2h5.62a5.08,5.08,0,0,1,3.63,1.26,3.79,3.79,0,0,1,1,2.72v0a3.78,3.78,0,0,1-3,3.81l3.4,4.77h-2.63l-3.09-4.39h-2.78V50.8h-2.21Zm5.45,6.25c1.59,0,2.6-.83,2.6-2.11v0c0-1.35-1-2.08-2.61-2.08h-3.23v4.23Z"/><circle class="cls-4" cx="758.36" cy="43.99" r="27.48"/><rect class="cls-7" x="420.31" y="42.99" width="52.37" height="2"/><polygon class="cls-7" points="426.68 51.77 418.9 43.99 426.68 36.21 428.09 37.63 421.73 43.99 428.09 50.35 426.68 51.77"/><polygon class="cls-7" points="466.02 51.77 464.6 50.35 470.97 43.99 464.6 37.63 466.02 36.21 473.79 43.99 466.02 51.77"/><rect class="cls-8" x="114.89" y="43.99" width="52.37" height="2"/><polygon class="cls-8" points="121.26 52.77 113.48 44.99 121.26 37.21 122.67 38.63 116.31 44.99 122.67 51.36 121.26 52.77"/><polygon class="cls-8" points="160.6 52.77 159.18 51.36 165.55 44.99 159.18 38.63 160.6 37.21 168.38 44.99 160.6 52.77"/><rect class="cls-9" x="732.33" y="42.99" width="52.37" height="2"/><polygon class="cls-9" points="738.69 51.77 730.91 43.99 738.69 36.21 740.11 37.63 733.74 43.99 740.11 50.36 738.69 51.77"/><polygon class="cls-9" points="778.03 51.77 776.62 50.35 782.98 43.99 776.62 37.63 778.03 36.21 785.81 43.99 778.03 51.77"/></svg>