<svg id="Layer_1" data-name="Layer 1" xmlns="http://www.w3.org/2000/svg" viewBox="0 0 1038.07 527.92"><defs><style>.cls-1{fill:#1a1a1a;}.cls-2{fill:#fff;}</style></defs><title>Artboard 1 copy 14</title><path class="cls-1" d="M146,94.26,137,99v15.56l0,.28a15.09,15.09,0,0,1-4.06,10.77c-5.22,5.78-15.3,8.83-29.14,8.83-14.08,0-24.57-3.17-30.32-9.17a15.64,15.64,0,0,1-4.66-10.8l.21-.19V100.66L60,96V114.2a25,25,0,0,0,7.15,17.29c7.61,7.93,19.89,12,36.73,12s29-4,36-12A24.94,24.94,0,0,0,146,114Z"/><polygon class="cls-2" points="173.23 68.57 101.08 106.01 28.94 68.57 101.08 31.13 173.23 68.57"/><path class="cls-1" d="M171.15,65.29C147.1,77.77,123.05,90,99,103h4.15C79.11,90,55,77.5,31,65v7.1C55,59.64,79.11,46,103.16,34H99c24,12,48.1,25.3,72.15,37.78,4.7,2.44,8.86-4.49,4.15-6.93-18-9.32-35.91-18.55-53.87-27.87-4.42-2.29-8.84-4.54-13.26-6.84-1.87-1-3.93-2.43-6-3-2.37-.65-5.41,1.59-7.42,2.63L82,36.4,26.86,65a4.14,4.14,0,0,0,0,7.11l53.87,28L94,107c1.87,1,3.93,2.45,6,3,2.37.65,5.41-1.58,7.42-2.62l12.75-6.62c18.38-9.54,36.76-18.94,55.14-28.48C180,69.82,175.85,62.85,171.15,65.29Z"/><path class="cls-1" d="M101,74h72.49c-1.37-2-3.49-3.23-4.49-4.61V113c0,5,8,5,8,0V69.39c0-2.24-1.27-3.39-3.51-3.39H101c-5,0-5,8,0,8Z"/><ellipse class="cls-1" cx="173.49" cy="112.59" rx="6.99" ry="15.63"/><path class="cls-1" d="M302,95.26l-9,4.7v15.56l0,.28a15.09,15.09,0,0,1-4.06,10.77c-5.22,5.78-15.3,8.83-29.14,8.83-14.08,0-24.57-3.17-30.32-9.17a15.64,15.64,0,0,1-4.66-10.8l.21-.19V101.66L216,97V115.2a25,25,0,0,0,7.15,17.29c7.61,7.93,19.89,12,36.73,12s29-4,36-12A24.94,24.94,0,0,0,302,115Z"/><polygon class="cls-2" points="329.23 69.57 257.08 107.01 184.94 69.57 257.08 32.13 329.23 69.57"/><path class="cls-1" d="M327.15,66.29C303.1,78.77,279.05,91,255,104h4.15C235.11,91,211,78.5,187,66v7.1C211,60.64,235.11,47,259.16,35H255c24,12,48.1,25.3,72.15,37.78,4.7,2.44,8.86-4.49,4.15-6.93-18-9.32-35.91-18.55-53.87-27.87-4.42-2.29-8.84-4.54-13.26-6.84-1.87-1-3.93-2.43-6-3-2.37-.65-5.41,1.59-7.42,2.63L238,37.4,182.86,66a4.14,4.14,0,0,0,0,7.11l53.87,28L250,108c1.87,1,3.93,2.45,6,3,2.37.65,5.41-1.58,7.42-2.62l12.75-6.62c18.38-9.54,36.76-18.94,55.14-28.48C336,70.82,331.85,63.85,327.15,66.29Z"/><path class="cls-1" d="M257,75h72.49c-1.37-2-3.49-3.23-4.49-4.61V114c0,5,8,5,8,0V70.39c0-2.24-1.27-3.39-3.51-3.39H257c-5,0-5,8,0,8Z"/><ellipse class="cls-1" cx="329.49" cy="113.59" rx="6.99" ry="15.63"/><path class="cls-1" d="M460,94.26,451,99v15.56l0,.28a15.09,15.09,0,0,1-4.06,10.77c-5.22,5.78-15.3,8.83-29.14,8.83-14.08,0-24.57-3.17-30.32-9.17a15.64,15.64,0,0,1-4.66-10.8l.21-.19V100.66L374,96V114.2a25,25,0,0,0,7.15,17.29c7.61,7.93,19.89,12,36.73,12s29-4,36-12A24.94,24.94,0,0,0,460,114Z"/><polygon class="cls-2" points="487.23 68.57 415.08 106.01 342.94 68.57 415.08 31.13 487.23 68.57"/><path class="cls-1" d="M485.15,65.29C461.1,77.77,437.05,90,413,103h4.15C393.11,90,369,77.5,345,65v7.1C369,59.64,393.11,46,417.16,34H413c24,12,48.1,25.3,72.15,37.78,4.7,2.44,8.86-4.49,4.15-6.93-18-9.32-35.91-18.55-53.87-27.87-4.42-2.29-8.84-4.54-13.26-6.84-1.87-1-3.93-2.43-6-3-2.37-.65-5.41,1.59-7.42,2.63L396,36.4,340.86,65a4.14,4.14,0,0,0,0,7.11l53.87,28L408,107c1.87,1,3.93,2.45,6,3,2.37.65,5.41-1.58,7.42-2.62l12.75-6.62c18.38-9.54,36.76-18.94,55.14-28.48C494,69.82,489.85,62.85,485.15,65.29Z"/><path class="cls-1" d="M415,74h72.49c-1.37-2-3.49-3.23-4.49-4.61V113c0,5,8,5,8,0V69.39c0-2.24-1.27-3.39-3.51-3.39H415c-5,0-5,8,0,8Z"/><ellipse class="cls-1" cx="487.49" cy="112.59" rx="6.99" ry="15.63"/><path class="cls-1" d="M618,95.26l-9,4.7v15.56l0,.28a15.09,15.09,0,0,1-4.06,10.77c-5.22,5.78-15.3,8.83-29.14,8.83-14.08,0-24.57-3.17-30.32-9.17a15.64,15.64,0,0,1-4.66-10.8l.21-.19V101.66L532,97V115.2a25,25,0,0,0,7.15,17.29c7.61,7.93,19.89,12,36.73,12s29-4,36-12A24.94,24.94,0,0,0,618,115Z"/><polygon class="cls-2" points="645.23 69.57 573.08 107.01 500.94 69.57 573.08 32.13 645.23 69.57"/><path class="cls-1" d="M643.15,66.29C619.1,78.77,595.05,91,571,104h4.15C551.11,91,527,78.5,503,66v7.1C527,60.64,551.11,47,575.16,35H571c24,12,48.1,25.3,72.15,37.78,4.7,2.44,8.86-4.49,4.15-6.93-18-9.32-35.91-18.55-53.87-27.87-4.42-2.29-8.84-4.54-13.26-6.84-1.87-1-3.93-2.43-6-3-2.37-.65-5.41,1.59-7.42,2.63L554,37.4,498.86,66a4.14,4.14,0,0,0,0,7.11l53.87,28L566,108c1.87,1,3.93,2.45,6,3,2.37.65,5.41-1.58,7.42-2.62l12.75-6.62c18.38-9.54,36.76-18.94,55.14-28.48C652,70.82,647.85,63.85,643.15,66.29Z"/><path class="cls-1" d="M573,75h72.49c-1.37-2-3.49-3.23-4.49-4.61V114c0,5,8,5,8,0V70.39c0-2.24-1.27-3.39-3.51-3.39H573c-5,0-5,8,0,8Z"/><ellipse class="cls-1" cx="645.49" cy="113.59" rx="6.99" ry="15.63"/><path class="cls-1" d="M774,98.26l-9,4.7v15.56l0,.28a15.09,15.09,0,0,1-4.06,10.77c-5.22,5.78-15.3,8.83-29.14,8.83-14.08,0-24.57-3.17-30.32-9.17a15.64,15.64,0,0,1-4.66-10.8l.21-.19V104.66l-9-4.7V118.2a25,25,0,0,0,7.15,17.29c7.61,7.93,19.89,12,36.73,12s29-4,36-12A24.94,24.94,0,0,0,774,118Z"/><polygon class="cls-2" points="801.23 72.57 729.08 110.01 656.94 72.57 729.08 35.13 801.23 72.57"/><path class="cls-1" d="M799.15,69.29C775.1,81.77,751.05,94,727,107h4.15C707.11,94,683,81.5,659,69v7.1C683,63.64,707.11,50,731.16,38H727c24,12,48.1,25.3,72.15,37.78,4.7,2.44,8.86-4.49,4.15-6.93-18-9.32-35.91-18.55-53.87-27.87-4.42-2.29-8.84-4.54-13.26-6.84-1.87-1-3.93-2.43-6-3-2.37-.65-5.41,1.59-7.42,2.63L710,40.4,654.86,69a4.14,4.14,0,0,0,0,7.11l53.87,28L722,111c1.87,1,3.93,2.45,6,3,2.37.65,5.41-1.58,7.42-2.62l12.75-6.62c18.38-9.54,36.76-18.94,55.14-28.48C808,73.82,803.85,66.85,799.15,69.29Z"/><path class="cls-1" d="M729,78h72.49c-1.37-2-3.49-3.23-4.49-4.61V117c0,5,8,5,8,0V73.39c0-2.24-1.27-3.39-3.51-3.39H729c-5,0-5,8,0,8Z"/><ellipse class="cls-1" cx="801.49" cy="116.59" rx="6.99" ry="15.63"/><path class="cls-1" d="M146,219.26l-9,4.7v15.56l0,.28a15.09,15.09,0,0,1-4.06,10.77c-5.22,5.78-15.3,8.83-29.14,8.83-14.08,0-24.57-3.17-30.32-9.17a15.64,15.64,0,0,1-4.66-10.8l.21-.19V225.66L60,221V239.2a25,25,0,0,0,7.15,17.29c7.61,7.93,19.89,12,36.73,12s29-4,36-12A24.94,24.94,0,0,0,146,239Z"/><polygon class="cls-2" points="173.23 193.57 101.08 231.01 28.94 193.57 101.08 156.13 173.23 193.57"/><path class="cls-1" d="M171.15,190.29C147.1,202.77,123.05,215,99,228h4.15C79.11,215,55,202.5,31,190v7.1C55,184.64,79.11,171,103.16,159H99c24,12,48.1,25.3,72.15,37.78,4.7,2.44,8.86-4.49,4.15-6.93-18-9.32-35.91-18.55-53.87-27.87-4.42-2.29-8.84-4.54-13.26-6.84-1.87-1-3.93-2.43-6-3-2.37-.65-5.41,1.59-7.42,2.63L82,161.4,26.86,190a4.14,4.14,0,0,0,0,7.11l53.87,28L94,232c1.87,1,3.93,2.45,6,3,2.37.65,5.41-1.58,7.42-2.62l12.75-6.62c18.38-9.54,36.76-18.94,55.14-28.48C180,194.82,175.85,187.85,171.15,190.29Z"/><path class="cls-1" d="M101,199h72.49c-1.37-2-3.49-3.23-4.49-4.61V238c0,5,8,5,8,0V194.39c0-2.24-1.27-3.39-3.51-3.39H101c-5,0-5,8,0,8Z"/><ellipse class="cls-1" cx="173.49" cy="237.59" rx="6.99" ry="15.63"/><path class="cls-1" d="M302,220.26l-9,4.7v15.56l0,.28a15.09,15.09,0,0,1-4.06,10.77c-5.22,5.78-15.3,8.83-29.14,8.83-14.08,0-24.57-3.17-30.32-9.17a15.64,15.64,0,0,1-4.66-10.8l.21-.19V226.66l-9-4.7V240.2a25,25,0,0,0,7.15,17.29c7.61,7.93,19.89,12,36.73,12s29-4,36-12A24.94,24.94,0,0,0,302,240Z"/><polygon class="cls-2" points="329.23 194.57 257.08 232.01 184.94 194.57 257.08 157.13 329.23 194.57"/><path class="cls-1" d="M327.15,191.29C303.1,203.77,279.05,216,255,229h4.15c-24-13-48.16-25.5-72.16-38v7.1C211,185.64,235.11,172,259.16,160H255c24,12,48.1,25.3,72.15,37.78,4.7,2.44,8.86-4.49,4.15-6.93-18-9.32-35.91-18.55-53.87-27.87-4.42-2.29-8.84-4.54-13.26-6.84-1.87-1-3.93-2.43-6-3-2.37-.65-5.41,1.59-7.42,2.63L238,162.4,182.86,191a4.14,4.14,0,0,0,0,7.11l53.87,28L250,233c1.87,1,3.93,2.45,6,3,2.37.65,5.41-1.58,7.42-2.62l12.75-6.62c18.38-9.54,36.76-18.94,55.14-28.48C336,195.82,331.85,188.85,327.15,191.29Z"/><path class="cls-1" d="M257,200h72.49c-1.37-2-3.49-3.23-4.49-4.61V239c0,5,8,5,8,0V195.39c0-2.24-1.27-3.39-3.51-3.39H257c-5,0-5,8,0,8Z"/><ellipse class="cls-1" cx="329.49" cy="238.59" rx="6.99" ry="15.63"/><path class="cls-1" d="M460,219.26l-9,4.7v15.56l0,.28a15.09,15.09,0,0,1-4.06,10.77c-5.22,5.78-15.3,8.83-29.14,8.83-14.08,0-24.57-3.17-30.32-9.17a15.64,15.64,0,0,1-4.66-10.8l.21-.19V225.66l-9-4.7V239.2a25,25,0,0,0,7.15,17.29c7.61,7.93,19.89,12,36.73,12s29-4,36-12A24.94,24.94,0,0,0,460,239Z"/><polygon class="cls-2" points="487.23 193.57 415.08 231.01 342.94 193.57 415.08 156.13 487.23 193.57"/><path class="cls-1" d="M485.15,190.29C461.1,202.77,437.05,215,413,228h4.15c-24-13-48.16-25.5-72.16-38v7.1C369,184.64,393.11,171,417.16,159H413c24,12,48.1,25.3,72.15,37.78,4.7,2.44,8.86-4.49,4.15-6.93-18-9.32-35.91-18.55-53.87-27.87-4.42-2.29-8.84-4.54-13.26-6.84-1.87-1-3.93-2.43-6-3-2.37-.65-5.41,1.59-7.42,2.63L396,161.4,340.86,190a4.14,4.14,0,0,0,0,7.11l53.87,28L408,232c1.87,1,3.93,2.45,6,3,2.37.65,5.41-1.58,7.42-2.62l12.75-6.62c18.38-9.54,36.76-18.94,55.14-28.48C494,194.82,489.85,187.85,485.15,190.29Z"/><path class="cls-1" d="M415,199h72.49c-1.37-2-3.49-3.23-4.49-4.61V238c0,5,8,5,8,0V194.39c0-2.24-1.27-3.39-3.51-3.39H415c-5,0-5,8,0,8Z"/><ellipse class="cls-1" cx="487.49" cy="237.59" rx="6.99" ry="15.63"/><path class="cls-1" d="M618,220.26l-9,4.7v15.56l0,.28a15.09,15.09,0,0,1-4.06,10.77c-5.22,5.78-15.3,8.83-29.14,8.83-14.08,0-24.57-3.17-30.32-9.17a15.64,15.64,0,0,1-4.66-10.8l.21-.19V226.66l-9-4.7V240.2a25,25,0,0,0,7.15,17.29c7.61,7.93,19.89,12,36.73,12s29-4,36-12A24.94,24.94,0,0,0,618,240Z"/><polygon class="cls-2" points="645.23 194.57 573.08 232.01 500.94 194.57 573.08 157.13 645.23 194.57"/><path class="cls-1" d="M643.15,191.29C619.1,203.77,595.05,216,571,229h4.15c-24-13-48.16-25.5-72.16-38v7.1C527,185.64,551.11,172,575.16,160H571c24,12,48.1,25.3,72.15,37.78,4.7,2.44,8.86-4.49,4.15-6.93-18-9.32-35.91-18.55-53.87-27.87-4.42-2.29-8.84-4.54-13.26-6.84-1.87-1-3.93-2.43-6-3-2.37-.65-5.41,1.59-7.42,2.63L554,162.4,498.86,191a4.14,4.14,0,0,0,0,7.11l53.87,28L566,233c1.87,1,3.93,2.45,6,3,2.37.65,5.41-1.58,7.42-2.62l12.75-6.62c18.38-9.54,36.76-18.94,55.14-28.48C652,195.82,647.85,188.85,643.15,191.29Z"/><path class="cls-1" d="M573,200h72.49c-1.37-2-3.49-3.23-4.49-4.61V239c0,5,8,5,8,0V195.39c0-2.24-1.27-3.39-3.51-3.39H573c-5,0-5,8,0,8Z"/><ellipse class="cls-1" cx="645.49" cy="238.59" rx="6.99" ry="15.63"/><path class="cls-1" d="M774,223.26l-9,4.7v15.56l0,.28a15.09,15.09,0,0,1-4.06,10.77c-5.22,5.78-15.3,8.83-29.14,8.83-14.08,0-24.57-3.17-30.32-9.17a15.64,15.64,0,0,1-4.66-10.8l.21-.19V229.66l-9-4.7V243.2a25,25,0,0,0,7.15,17.29c7.61,7.93,19.89,12,36.73,12s29-4,36-12A24.94,24.94,0,0,0,774,243Z"/><polygon class="cls-2" points="801.23 197.57 729.08 235.01 656.94 197.57 729.08 160.13 801.23 197.57"/><path class="cls-1" d="M799.15,194.29C775.1,206.77,751.05,219,727,232h4.15c-24-13-48.16-25.5-72.16-38v7.1C683,188.64,707.11,175,731.16,163H727c24,12,48.1,25.3,72.15,37.78,4.7,2.44,8.86-4.49,4.15-6.93-18-9.32-35.91-18.55-53.87-27.87-4.42-2.29-8.84-4.54-13.26-6.84-1.87-1-3.93-2.43-6-3-2.37-.65-5.41,1.59-7.42,2.63L710,165.4,654.86,194a4.14,4.14,0,0,0,0,7.11l53.87,28L722,236c1.87,1,3.93,2.45,6,3,2.37.65,5.41-1.58,7.42-2.62l12.75-6.62c18.38-9.54,36.76-18.94,55.14-28.48C808,198.82,803.85,191.85,799.15,194.29Z"/><path class="cls-1" d="M729,203h72.49c-1.37-2-3.49-3.23-4.49-4.61V242c0,5,8,5,8,0V198.39c0-2.24-1.27-3.39-3.51-3.39H729c-5,0-5,8,0,8Z"/><ellipse class="cls-1" cx="801.49" cy="241.59" rx="6.99" ry="15.63"/><path class="cls-1" d="M151,343.26l-9,4.7v15.56l0,.28a15.09,15.09,0,0,1-4.06,10.77c-5.22,5.78-15.3,8.83-29.14,8.83-14.08,0-24.57-3.17-30.32-9.17a15.64,15.64,0,0,1-4.66-10.8l.21-.19V349.66L65,345V363.2a25,25,0,0,0,7.15,17.29c7.61,7.93,19.89,12,36.73,12s29-4,36-12A24.94,24.94,0,0,0,151,363Z"/><polygon class="cls-2" points="178.23 317.57 106.08 355.01 33.94 317.57 106.08 280.13 178.23 317.57"/><path class="cls-1" d="M176.15,314.29C152.1,326.77,128.05,339,104,352h4.15C84.11,339,60,326.5,36,314v7.1C60,308.64,84.11,295,108.16,283H104c24,12,48.1,25.3,72.15,37.78,4.7,2.44,8.86-4.49,4.15-6.93-18-9.32-35.91-18.55-53.87-27.87-4.42-2.29-8.84-4.54-13.26-6.84-1.87-1-3.93-2.43-6-3-2.37-.65-5.41,1.59-7.42,2.63L87,285.4,31.86,314a4.14,4.14,0,0,0,0,7.11l53.87,28L99,356c1.87,1,3.93,2.45,6,3,2.37.65,5.41-1.58,7.42-2.62l12.75-6.62c18.38-9.54,36.76-18.94,55.14-28.48C185,318.82,180.85,311.85,176.15,314.29Z"/><path class="cls-1" d="M106,323h72.49c-1.37-2-3.49-3.23-4.49-4.61V362c0,5,8,5,8,0V318.39c0-2.24-1.27-3.39-3.51-3.39H106c-5,0-5,8,0,8Z"/><ellipse class="cls-1" cx="178.49" cy="361.59" rx="6.99" ry="15.63"/><path class="cls-1" d="M307,344.26l-9,4.7v15.56l0,.28a15.09,15.09,0,0,1-4.06,10.77c-5.22,5.78-15.3,8.83-29.14,8.83-14.08,0-24.57-3.17-30.32-9.17a15.64,15.64,0,0,1-4.66-10.8l.21-.19V350.66l-9-4.7V364.2a25,25,0,0,0,7.15,17.29c7.61,7.93,19.89,12,36.73,12s29-4,36-12A24.94,24.94,0,0,0,307,364Z"/><polygon class="cls-2" points="334.23 318.57 262.08 356.01 189.94 318.57 262.08 281.13 334.23 318.57"/><path class="cls-1" d="M332.15,315.29C308.1,327.77,284.05,340,260,353h4.15c-24-13-48.16-25.5-72.16-38v7.1C216,309.64,240.11,296,264.16,284H260c24,12,48.1,25.3,72.15,37.78,4.7,2.44,8.86-4.49,4.15-6.93-18-9.32-35.91-18.55-53.87-27.87-4.42-2.29-8.84-4.54-13.26-6.84-1.87-1-3.93-2.43-6-3-2.37-.65-5.41,1.59-7.42,2.63L243,286.4,187.86,315a4.14,4.14,0,0,0,0,7.11l53.87,28L255,357c1.87,1,3.93,2.45,6,3,2.37.65,5.41-1.58,7.42-2.62l12.75-6.62c18.38-9.54,36.76-18.94,55.14-28.48C341,319.82,336.85,312.85,332.15,315.29Z"/><path class="cls-1" d="M262,324h72.49c-1.37-2-3.49-3.23-4.49-4.61V363c0,5,8,5,8,0V319.39c0-2.24-1.27-3.39-3.51-3.39H262c-5,0-5,8,0,8Z"/><ellipse class="cls-1" cx="334.49" cy="362.59" rx="6.99" ry="15.63"/><path class="cls-1" d="M465,343.26l-9,4.7v15.56l0,.28a15.09,15.09,0,0,1-4.06,10.77c-5.22,5.78-15.3,8.83-29.14,8.83-14.08,0-24.57-3.17-30.32-9.17a15.64,15.64,0,0,1-4.66-10.8l.21-.19V349.66l-9-4.7V363.2a25,25,0,0,0,7.15,17.29c7.61,7.93,19.89,12,36.73,12s29-4,36-12A24.94,24.94,0,0,0,465,363Z"/><polygon class="cls-2" points="492.23 317.57 420.08 355.01 347.94 317.57 420.08 280.13 492.23 317.57"/><path class="cls-1" d="M490.15,314.29C466.1,326.77,442.05,339,418,352h4.15c-24-13-48.16-25.5-72.16-38v7.1C374,308.64,398.11,295,422.16,283H418c24,12,48.1,25.3,72.15,37.78,4.7,2.44,8.86-4.49,4.15-6.93-18-9.32-35.91-18.55-53.87-27.87-4.42-2.29-8.84-4.54-13.26-6.84-1.87-1-3.93-2.43-6-3-2.37-.65-5.41,1.59-7.42,2.63L401,285.4,345.86,314a4.14,4.14,0,0,0,0,7.11l53.87,28L413,356c1.87,1,3.93,2.45,6,3,2.37.65,5.41-1.58,7.42-2.62l12.75-6.62c18.38-9.54,36.76-18.94,55.14-28.48C499,318.82,494.85,311.85,490.15,314.29Z"/><path class="cls-1" d="M420,323h72.49c-1.37-2-3.49-3.23-4.49-4.61V362c0,5,8,5,8,0V318.39c0-2.24-1.27-3.39-3.51-3.39H420c-5,0-5,8,0,8Z"/><ellipse class="cls-1" cx="492.49" cy="361.59" rx="6.99" ry="15.63"/><path class="cls-1" d="M623,344.26l-9,4.7v15.56l0,.28a15.09,15.09,0,0,1-4.06,10.77c-5.22,5.78-15.3,8.83-29.14,8.83-14.08,0-24.57-3.17-30.32-9.17a15.64,15.64,0,0,1-4.66-10.8l.21-.19V350.66l-9-4.7V364.2a25,25,0,0,0,7.15,17.29c7.61,7.93,19.89,12,36.73,12s29-4,36-12A24.94,24.94,0,0,0,623,364Z"/><polygon class="cls-2" points="650.23 318.57 578.08 356.01 505.94 318.57 578.08 281.13 650.23 318.57"/><path class="cls-1" d="M648.15,315.29C624.1,327.77,600.05,340,576,353h4.15c-24-13-48.16-25.5-72.16-38v7.1C532,309.64,556.11,296,580.16,284H576c24,12,48.1,25.3,72.15,37.78,4.7,2.44,8.86-4.49,4.15-6.93-18-9.32-35.91-18.55-53.87-27.87-4.42-2.29-8.84-4.54-13.26-6.84-1.87-1-3.93-2.43-6-3-2.37-.65-5.41,1.59-7.42,2.63L559,286.4,503.86,315a4.14,4.14,0,0,0,0,7.11l53.87,28L571,357c1.87,1,3.93,2.45,6,3,2.37.65,5.41-1.58,7.42-2.62l12.75-6.62c18.38-9.54,36.76-18.94,55.14-28.48C657,319.82,652.85,312.85,648.15,315.29Z"/><path class="cls-1" d="M578,324h72.49c-1.37-2-3.49-3.23-4.49-4.61V363c0,5,8,5,8,0V319.39c0-2.24-1.27-3.39-3.51-3.39H578c-5,0-5,8,0,8Z"/><ellipse class="cls-1" cx="650.49" cy="362.59" rx="6.99" ry="15.63"/><path class="cls-1" d="M779,347.26l-9,4.7v15.56l0,.28a15.09,15.09,0,0,1-4.06,10.77c-5.22,5.78-15.3,8.83-29.14,8.83-14.08,0-24.57-3.17-30.32-9.17a15.64,15.64,0,0,1-4.66-10.8l.21-.19V353.66l-9-4.7V367.2a25,25,0,0,0,7.15,17.29c7.61,7.93,19.89,12,36.73,12s29-4,36-12A24.94,24.94,0,0,0,779,367Z"/><polygon class="cls-2" points="806.23 321.57 734.08 359.01 661.94 321.57 734.08 284.13 806.23 321.57"/><path class="cls-1" d="M804.15,318.29C780.1,330.77,756.05,343,732,356h4.15c-24-13-48.16-25.5-72.16-38v7.1C688,312.64,712.11,299,736.16,287H732c24,12,48.1,25.3,72.15,37.78,4.7,2.44,8.86-4.49,4.15-6.93-18-9.32-35.91-18.55-53.87-27.87-4.42-2.29-8.84-4.54-13.26-6.84-1.87-1-3.93-2.43-6-3-2.37-.65-5.41,1.59-7.42,2.63L715,289.4,659.86,318a4.14,4.14,0,0,0,0,7.11l53.87,28L727,360c1.87,1,3.93,2.45,6,3,2.37.65,5.41-1.58,7.42-2.62l12.75-6.62c18.38-9.54,36.76-18.94,55.14-28.48C813,322.82,808.85,315.85,804.15,318.29Z"/><path class="cls-1" d="M734,327h72.49c-1.37-2-3.49-3.23-4.49-4.61V366c0,5,8,5,8,0V322.39c0-2.24-1.27-3.39-3.51-3.39H734c-5,0-5,8,0,8Z"/><ellipse class="cls-1" cx="806.49" cy="365.59" rx="6.99" ry="15.63"/><path class="cls-1" d="M931,101.26l-9,4.7v15.56l0,.28a15.09,15.09,0,0,1-4.06,10.77c-5.22,5.78-15.3,8.83-29.14,8.83-14.08,0-24.57-3.17-30.32-9.17a15.64,15.64,0,0,1-4.66-10.8l.21-.19V107.66l-9-4.7V121.2a25,25,0,0,0,7.15,17.29c7.61,7.93,19.89,12,36.73,12s29-4,36-12A24.94,24.94,0,0,0,931,121Z"/><polygon class="cls-2" points="958.23 75.57 886.08 113.01 813.94 75.57 886.08 38.13 958.23 75.57"/><path class="cls-1" d="M956.15,72.29C932.1,84.77,908.05,97,884,110h4.15C864.11,97,840,84.5,816,72v7.1C840,66.64,864.11,53,888.16,41H884c24,12,48.1,25.3,72.15,37.78,4.7,2.44,8.86-4.49,4.15-6.93-18-9.32-35.91-18.55-53.87-27.87-4.42-2.29-8.84-4.54-13.26-6.84-1.87-1-3.93-2.43-6-3-2.37-.65-5.41,1.59-7.42,2.63L867,43.4,811.86,72a4.14,4.14,0,0,0,0,7.11l53.87,28L879,114c1.87,1,3.93,2.45,6,3,2.37.65,5.41-1.58,7.42-2.62l12.75-6.62c18.38-9.54,36.76-18.94,55.14-28.48C965,76.82,960.85,69.85,956.15,72.29Z"/><path class="cls-1" d="M886,81h72.49c-1.37-2-3.49-3.23-4.49-4.61V120c0,5,8,5,8,0V76.39c0-2.24-1.27-3.39-3.51-3.39H886c-5,0-5,8,0,8Z"/><ellipse class="cls-1" cx="958.49" cy="119.59" rx="6.99" ry="15.63"/><path class="cls-1" d="M931,226.26l-9,4.7v15.56l0,.28a15.09,15.09,0,0,1-4.06,10.77c-5.22,5.78-15.3,8.83-29.14,8.83-14.08,0-24.57-3.17-30.32-9.17a15.64,15.64,0,0,1-4.66-10.8l.21-.19V232.66l-9-4.7V246.2a25,25,0,0,0,7.15,17.29c7.61,7.93,19.89,12,36.73,12s29-4,36-12A24.94,24.94,0,0,0,931,246Z"/><polygon class="cls-2" points="958.23 200.57 886.08 238.01 813.94 200.57 886.08 163.13 958.23 200.57"/><path class="cls-1" d="M956.15,197.29C932.1,209.77,908.05,222,884,235h4.15c-24-13-48.16-25.5-72.16-38v7.1C840,191.64,864.11,178,888.16,166H884c24,12,48.1,25.3,72.15,37.78,4.7,2.44,8.86-4.49,4.15-6.93-18-9.32-35.91-18.55-53.87-27.87-4.42-2.29-8.84-4.54-13.26-6.84-1.87-1-3.93-2.43-6-3-2.37-.65-5.41,1.59-7.42,2.63L867,168.4,811.86,197a4.14,4.14,0,0,0,0,7.11l53.87,28L879,239c1.87,1,3.93,2.45,6,3,2.37.65,5.41-1.58,7.42-2.62l12.75-6.62c18.38-9.54,36.76-18.94,55.14-28.48C965,201.82,960.85,194.85,956.15,197.29Z"/><path class="cls-1" d="M886,206h72.49c-1.37-2-3.49-3.23-4.49-4.61V245c0,5,8,5,8,0V201.39c0-2.24-1.27-3.39-3.51-3.39H886c-5,0-5,8,0,8Z"/><ellipse class="cls-1" cx="958.49" cy="244.59" rx="6.99" ry="15.63"/><path class="cls-1" d="M936,350.26l-9,4.7v15.56l0,.28a15.09,15.09,0,0,1-4.06,10.77c-5.22,5.78-15.3,8.83-29.14,8.83-14.08,0-24.57-3.17-30.32-9.17a15.64,15.64,0,0,1-4.66-10.8l.21-.19V356.66l-9-4.7V370.2a25,25,0,0,0,7.15,17.29c7.61,7.93,19.89,12,36.73,12s29-4,36-12A24.94,24.94,0,0,0,936,370Z"/><polygon class="cls-2" points="963.23 324.57 891.08 362.01 818.94 324.57 891.08 287.13 963.23 324.57"/><path class="cls-1" d="M961.15,321.29C937.1,333.77,913.05,346,889,359h4.15c-24-13-48.16-25.5-72.16-38v7.1C845,315.64,869.11,302,893.16,290H889c24,12,48.1,25.3,72.15,37.78,4.7,2.44,8.86-4.49,4.15-6.93-18-9.32-35.91-18.55-53.87-27.87-4.42-2.29-8.84-4.54-13.26-6.84-1.87-1-3.93-2.43-6-3-2.37-.65-5.41,1.59-7.42,2.63L872,292.4,816.86,321a4.14,4.14,0,0,0,0,7.11l53.87,28L884,363c1.87,1,3.93,2.45,6,3,2.37.65,5.41-1.58,7.42-2.62l12.75-6.62c18.38-9.54,36.76-18.94,55.14-28.48C970,325.82,965.85,318.85,961.15,321.29Z"/><path class="cls-1" d="M891,330h72.49c-1.37-2-3.49-3.23-4.49-4.61V369c0,5,8,5,8,0V325.39c0-2.24-1.27-3.39-3.51-3.39H891c-5,0-5,8,0,8Z"/><ellipse class="cls-1" cx="963.49" cy="368.59" rx="6.99" ry="15.63"/><path class="cls-1" d="M152,463.26l-9,4.7v15.56l0,.28a15.09,15.09,0,0,1-4.06,10.77c-5.22,5.78-15.3,8.83-29.14,8.83-14.08,0-24.57-3.17-30.32-9.17a15.64,15.64,0,0,1-4.66-10.8l.21-.19V469.66L66,465V483.2a25,25,0,0,0,7.15,17.29c7.61,7.93,19.89,12,36.73,12s29-4,36-12A24.94,24.94,0,0,0,152,483Z"/><polygon class="cls-2" points="179.23 437.57 107.08 475.01 34.94 437.57 107.08 400.13 179.23 437.57"/><path class="cls-1" d="M177.15,434.29C153.1,446.77,129.05,459,105,472h4.15C85.11,459,61,446.5,37,434v7.1C61,428.64,85.11,415,109.16,403H105c24,12,48.1,25.3,72.15,37.78,4.7,2.44,8.86-4.49,4.15-6.93-18-9.32-35.91-18.55-53.87-27.87-4.42-2.29-8.84-4.54-13.26-6.84-1.87-1-3.93-2.43-6-3-2.37-.65-5.41,1.59-7.42,2.63L88,405.4,32.86,434a4.14,4.14,0,0,0,0,7.11l53.87,28L100,476c1.87,1,3.93,2.45,6,3,2.37.65,5.41-1.58,7.42-2.62l12.75-6.62c18.38-9.54,36.76-18.94,55.14-28.48C186,438.82,181.85,431.85,177.15,434.29Z"/><path class="cls-1" d="M107,443h72.49c-1.37-2-3.49-3.23-4.49-4.61V482c0,5,8,5,8,0V438.39c0-2.24-1.27-3.39-3.51-3.39H107c-5,0-5,8,0,8Z"/><ellipse class="cls-1" cx="179.49" cy="481.59" rx="6.99" ry="15.63"/><path class="cls-1" d="M308,466.26l-9,4.7v15.56l0,.28a15.09,15.09,0,0,1-4.06,10.77c-5.22,5.78-15.3,8.83-29.14,8.83-14.08,0-24.57-3.17-30.32-9.17a15.64,15.64,0,0,1-4.66-10.8l.21-.19V472.66l-9-4.7V486.2a25,25,0,0,0,7.15,17.29c7.61,7.93,19.89,12,36.73,12s29-4,36-12A24.94,24.94,0,0,0,308,486Z"/><polygon class="cls-2" points="335.23 440.57 263.08 478.01 190.94 440.57 263.08 403.13 335.23 440.57"/><path class="cls-1" d="M333.15,437.29C309.1,449.77,285.05,462,261,475h4.15c-24-13-48.16-25.5-72.16-38v7.1C217,431.64,241.11,418,265.16,406H261c24,12,48.1,25.3,72.15,37.78,4.7,2.44,8.86-4.49,4.15-6.93-18-9.32-35.91-18.55-53.87-27.87-4.42-2.29-8.84-4.54-13.26-6.84-1.87-1-3.93-2.43-6-3-2.37-.65-5.41,1.59-7.42,2.63L244,408.4,188.86,437a4.14,4.14,0,0,0,0,7.11l53.87,28L256,479c1.87,1,3.93,2.45,6,3,2.37.65,5.41-1.58,7.42-2.62l12.75-6.62c18.38-9.54,36.76-18.94,55.14-28.48C342,441.82,337.85,434.85,333.15,437.29Z"/><path class="cls-1" d="M263,446h72.49c-1.37-2-3.49-3.23-4.49-4.61V485c0,5,8,5,8,0V441.39c0-2.24-1.27-3.39-3.51-3.39H263c-5,0-5,8,0,8Z"/><ellipse class="cls-1" cx="335.49" cy="484.59" rx="6.99" ry="15.63"/><path class="cls-1" d="M465,469.26l-9,4.7v15.56l0,.28a15.09,15.09,0,0,1-4.06,10.77c-5.22,5.78-15.3,8.83-29.14,8.83-14.08,0-24.57-3.17-30.32-9.17a15.64,15.64,0,0,1-4.66-10.8l.21-.19V475.66l-9-4.7V489.2a25,25,0,0,0,7.15,17.29c7.61,7.93,19.89,12,36.73,12s29-4,36-12A24.94,24.94,0,0,0,465,489Z"/><polygon class="cls-2" points="492.23 443.57 420.08 481.01 347.94 443.57 420.08 406.13 492.23 443.57"/><path class="cls-1" d="M490.15,440.29C466.1,452.77,442.05,465,418,478h4.15c-24-13-48.16-25.5-72.16-38v7.1C374,434.64,398.11,421,422.16,409H418c24,12,48.1,25.3,72.15,37.78,4.7,2.44,8.86-4.49,4.15-6.93-18-9.32-35.91-18.55-53.87-27.87-4.42-2.29-8.84-4.54-13.26-6.84-1.87-1-3.93-2.43-6-3-2.37-.65-5.41,1.59-7.42,2.63L401,411.4,345.86,440a4.14,4.14,0,0,0,0,7.11l53.87,28L413,482c1.87,1,3.93,2.45,6,3,2.37.65,5.41-1.58,7.42-2.62l12.75-6.62c18.38-9.54,36.76-18.94,55.14-28.48C499,444.82,494.85,437.85,490.15,440.29Z"/><path class="cls-1" d="M420,449h72.49c-1.37-2-3.49-3.23-4.49-4.61V488c0,5,8,5,8,0V444.39c0-2.24-1.27-3.39-3.51-3.39H420c-5,0-5,8,0,8Z"/><ellipse class="cls-1" cx="492.49" cy="487.59" rx="6.99" ry="15.63"/></svg>