<svg id="Layer_1" data-name="Layer 1" xmlns="http://www.w3.org/2000/svg" viewBox="0 0 500 500"><defs><style>.cls-1{fill:#fedbab;}.cls-2{fill:#fff;}.cls-3{fill:none;stroke:#ffdcab;stroke-miterlimit:10;stroke-width:13px;}</style></defs><title>Artboard 1 copy 6</title><path class="cls-1" d="M248.61,28a224.3,224.3,0,0,1,87.28,430.86A224.3,224.3,0,0,1,161.34,45.58,222.82,222.82,0,0,1,248.61,28m0-13C117.59,15,11.38,121.17,11.38,252.2S117.59,489.43,248.61,489.43,485.85,383.22,485.85,252.2,379.64,15,248.61,15Z"/><path class="cls-2" d="M166.86,146c-6.29.68-11.78,5.21-15.5,13.49l-1.25,3.11-21.66,49.71c-2,3.29-7.13,16.56-9.94,26.63-2.15,7.71-2.71,22.57-3.66,27.68-.65,3.52-5.16,4.27-2.72,13.31,2.21,8.24,7.69,8.22,7.56,32.36l-.47,7.14L119,331.17v11.25c0,4,4.1,7.58,8.13,7.58h26.26a7.81,7.81,0,0,0,7.61-7.58V316H342v26.42c0,4,3,7.58,7,7.58h26.27c4,0,6.69-3.55,6.69-7.58V331.17l.51-11.72.09-7.14c-.13-24.18,5.48-24.37,7.63-32.36,2.44-9-2-9.79-2.67-13.31-1-5.1-1.49-20-3.65-27.68-2.82-10.08-8-23.35-9.93-26.63l-21.66-49.71-1.25-3.11c-3.71-8.28-9.21-12.81-15.5-13.49M139.17,272c-5.87,0-10.17-4.68-10.17-10.55v-7.81c0-5.88,4.3-10.64,10.17-10.64h31.72c5.87,0,11.11,4.77,11.11,10.64v7.81c0,5.87-5.23,10.55-11.11,10.55Zm57.5-19a3,3,0,0,1-3.05-3h0a3,3,0,0,1,3.05-3H305a3,3,0,0,1,3.05,3h0a3,3,0,0,1-3.05,3Zm0,13a3,3,0,0,1-3.05-3h0a3,3,0,0,1,3.05-3H305a3,3,0,0,1,3.05,3h0a3,3,0,0,1-3.05,3Zm135.44,6c-5.87,0-10.11-4.68-10.11-10.55v-7.81c0-5.88,4.23-10.64,10.11-10.64h31.72c5.88,0,11.17,4.77,11.17,10.64v7.81c0,5.87-5.29,10.55-11.17,10.55ZM139,216s18.74-44.85,21.1-51.26c3.19-8.67,6.94-9.59,12.85-10,8.91-.61,148.1-.69,157-.08,5.91.41,9.66,1.45,12.85,10.12C345.22,171.19,364,216,364,216Z"/><line class="cls-2" x1="52" y1="391" x2="448" y2="126"/><line class="cls-3" x1="66.08" y1="382.93" x2="430.08" y2="118.93"/></svg>