<svg id="Layer_1" data-name="Layer 1" xmlns="http://www.w3.org/2000/svg" viewBox="0 0 500 500"><defs><style>.cls-1{fill:none;stroke:#b0ffe1;stroke-miterlimit:10;stroke-width:13px;}.cls-2{fill:#fff;}</style></defs><title>Artboard 1 copy 2</title><circle class="cls-1" cx="249.61" cy="250.2" r="237.24"/><path class="cls-2" d="M189,299.9c-2.92,4.82-9.46,6.2-14.6,3.08s-7-9.55-4-14.36,20.12-12.2,20.12-12.2S191.92,295.09,189,299.9Z"/><path class="cls-2" d="M166.17,334.18c-2.92,4.82-9.45,6.19-14.6,3.08s-7-9.55-4-14.36,20.12-12.2,20.12-12.2S169.09,329.36,166.17,334.18Z"/><path class="cls-2" d="M232.1,299.9c-2.92,4.82-9.45,6.2-14.6,3.08s-7-9.55-4-14.36,20.12-12.2,20.12-12.2S235,295.09,232.1,299.9Z"/><path class="cls-2" d="M209.27,334.18c-2.92,4.82-9.46,6.19-14.6,3.08s-7-9.55-4-14.36,20.12-12.2,20.12-12.2S212.19,329.36,209.27,334.18Z"/><path class="cls-2" d="M186.45,368.45c-2.92,4.82-9.45,6.2-14.6,3.08s-7-9.55-4-14.36S187.93,345,187.93,345,189.36,363.64,186.45,368.45Z"/><path class="cls-2" d="M275.2,299.9c-2.92,4.82-9.45,6.2-14.6,3.08s-7-9.55-4-14.36,20.12-12.2,20.12-12.2S278.12,295.09,275.2,299.9Z"/><path class="cls-2" d="M252.38,334.18c-2.92,4.82-9.45,6.19-14.6,3.08s-7-9.55-4-14.36,20.12-12.2,20.12-12.2S255.29,329.36,252.38,334.18Z"/><path class="cls-2" d="M229.55,368.45c-2.92,4.82-9.45,6.2-14.6,3.08s-7-9.55-4-14.36S231,345,231,345,232.46,363.64,229.55,368.45Z"/><path class="cls-2" d="M318.31,299.9c-2.92,4.82-9.45,6.2-14.6,3.08s-7-9.55-4-14.36,20.12-12.2,20.12-12.2S321.23,295.09,318.31,299.9Z"/><path class="cls-2" d="M295.48,334.18c-2.92,4.82-9.46,6.19-14.6,3.08s-7-9.55-4-14.36S297,310.69,297,310.69,298.4,329.36,295.48,334.18Z"/><path class="cls-2" d="M348.16,227.76a28.34,28.34,0,0,0-28.33-28.38c-.52,0-1,0-1.52,0a28.36,28.36,0,0,0-44.42-31.48,28.37,28.37,0,0,0-56.11-2.11,28.38,28.38,0,0,0-41.29,33.91A28.3,28.3,0,0,0,181,256H320v.13A28.15,28.15,0,0,0,348.16,227.76Z"/></svg>