<svg id="Layer_1" data-name="Layer 1" xmlns="http://www.w3.org/2000/svg" xmlns:xlink="http://www.w3.org/1999/xlink" viewBox="0 0 1200 222"><defs><style>.cls-1{fill:none;}.cls-2{clip-path:url(#clip-path);}.cls-3{opacity:0.7;}.cls-4{clip-path:url(#clip-path-3);}.cls-5{fill:#75cdae;}.cls-6{clip-path:url(#clip-path-4);}.cls-7{clip-path:url(#clip-path-5);}.cls-8{opacity:0.99;}.cls-9{clip-path:url(#clip-path-6);}.cls-10{fill:#87b940;}.cls-11{fill:#3fac49;}.cls-12{opacity:0.8;}.cls-13{clip-path:url(#clip-path-8);}.cls-14{clip-path:url(#clip-path-9);}.cls-15{fill:#68bc45;}.cls-16{fill:#51b45f;}.cls-17{clip-path:url(#clip-path-11);}.cls-18{clip-path:url(#clip-path-12);}.cls-19{clip-path:url(#clip-path-13);}.cls-20{opacity:0.65;}.cls-21{clip-path:url(#clip-path-14);}.cls-22{clip-path:url(#clip-path-15);}.cls-23{clip-path:url(#clip-path-16);}.cls-24{clip-path:url(#clip-path-18);}.cls-25{clip-path:url(#clip-path-20);}.cls-26{clip-path:url(#clip-path-21);}.cls-27{clip-path:url(#clip-path-22);}.cls-28{clip-path:url(#clip-path-23);}.cls-29{clip-path:url(#clip-path-24);}.cls-30{clip-path:url(#clip-path-25);}.cls-31{clip-path:url(#clip-path-26);}.cls-32{clip-path:url(#clip-path-27);}.cls-33{clip-path:url(#clip-path-28);}.cls-34{clip-path:url(#clip-path-29);}.cls-35{clip-path:url(#clip-path-30);}.cls-36{clip-path:url(#clip-path-32);}</style><clipPath id="clip-path"><polygon class="cls-1" points="-18 226 1211 226 1209 59.16 -20 59.16 -18 226"/></clipPath><clipPath id="clip-path-3"><rect class="cls-1" x="495.03" y="96.24" width="193.72" height="128.96"/></clipPath><clipPath id="clip-path-4"><rect class="cls-1" x="1015.94" y="88.77" width="193.77" height="138.27"/></clipPath><clipPath id="clip-path-5"><rect class="cls-1" x="58.14" y="97.65" width="193.71" height="126.98"/></clipPath><clipPath id="clip-path-6"><rect class="cls-1" x="146.45" y="127.92" width="88.57" height="95.54"/></clipPath><clipPath id="clip-path-8"><rect class="cls-1" x="2.53" y="45.78" width="129.48" height="178.84"/></clipPath><clipPath id="clip-path-9"><polygon class="cls-1" points="-18 224.61 78.03 224.61 76.03 108.19 -20 108.19 -18 224.61"/></clipPath><clipPath id="clip-path-11"><rect class="cls-1" x="249.78" y="101.31" width="151.68" height="121.59"/></clipPath><clipPath id="clip-path-12"><rect class="cls-1" x="238.68" y="145.32" width="95.65" height="79.29"/></clipPath><clipPath id="clip-path-13"><rect class="cls-1" x="878.73" y="149.15" width="95.65" height="76.85"/></clipPath><clipPath id="clip-path-14"><rect class="cls-1" x="198.43" y="138.17" width="71.12" height="84.71"/></clipPath><clipPath id="clip-path-15"><rect class="cls-1" x="640.4" y="84.17" width="120.41" height="140.8"/></clipPath><clipPath id="clip-path-16"><rect class="cls-1" x="891.21" y="108.34" width="117.37" height="117.66"/></clipPath><clipPath id="clip-path-18"><rect class="cls-1" x="343.62" y="131.06" width="151.68" height="93.56"/></clipPath><clipPath id="clip-path-20"><rect class="cls-1" x="1000.23" y="125.63" width="155.69" height="100.9"/></clipPath><clipPath id="clip-path-21"><rect class="cls-1" x="753.91" y="135.55" width="151.68" height="89.42"/></clipPath><clipPath id="clip-path-22"><rect class="cls-1" x="208.06" y="93.75" width="95.65" height="130.86"/></clipPath><clipPath id="clip-path-23"><rect class="cls-1" x="718.46" y="108.44" width="95.65" height="116.53"/></clipPath><clipPath id="clip-path-24"><rect class="cls-1" x="1113.35" y="108.18" width="95.65" height="117.76"/></clipPath><clipPath id="clip-path-25"><rect class="cls-1" x="343.62" y="138.17" width="71.12" height="86.44"/></clipPath><clipPath id="clip-path-26"><rect class="cls-1" x="459.24" y="127.92" width="88.6" height="97.91"/></clipPath><clipPath id="clip-path-27"><rect class="cls-1" x="68.57" y="100.41" width="86.95" height="124.2"/></clipPath><clipPath id="clip-path-28"><rect class="cls-1" x="513.38" y="94.07" width="95.4" height="130.54"/></clipPath><clipPath id="clip-path-29"><rect class="cls-1" x="402.24" y="134.35" width="110.8" height="90.27"/></clipPath><clipPath id="clip-path-30"><rect class="cls-1" x="974.15" y="138.17" width="110.8" height="87.83"/></clipPath><clipPath id="clip-path-32"><rect class="cls-1" x="602.22" y="108.18" width="115.6" height="116.79"/></clipPath></defs><title>Artboard 9</title><g class="cls-2"><g class="cls-2"><g class="cls-3"><g class="cls-4"><polygon class="cls-5" points="592.49 110.14 512.25 222.37 670.88 222.7 592.49 110.14"/></g></g><g class="cls-3"><g class="cls-6"><polygon class="cls-5" points="1113.4 102.66 1033.16 224.2 1191.79 224.78 1113.4 102.66"/></g></g><g class="cls-3"><g class="cls-7"><polygon class="cls-5" points="155.6 111.55 75.37 221.8 233.99 222.37 155.6 111.55"/></g></g><g class="cls-8"><g class="cls-9"><polygon class="cls-10" points="189.54 142.08 165.26 220.97 217.78 220.33 189.54 142.08"/></g></g></g><polygon class="cls-11" points="55.66 131.81 19.74 220.05 96.1 220.26 55.66 131.81"/><g class="cls-2"><g class="cls-12"><g class="cls-13"><polygon class="cls-10" points="67.34 59.16 19.74 222.7 114.79 222.7 67.34 59.16"/></g></g><g class="cls-12"><g class="cls-14"><polygon class="cls-15" points="28.21 121.57 -0.79 222.7 58.82 222.7 28.21 121.57"/></g></g></g><polygon class="cls-16" points="185.6 167.85 167.26 219.57 203.95 219.57 185.6 167.85"/><polygon class="cls-16" points="1156.31 224.03 1199.92 224.61 1179.52 162.54 1156.31 224.03"/><polygon class="cls-11" points="226.04 131.81 261.96 222.7 185.6 222.7 226.04 131.81"/><g class="cls-2"><g class="cls-12"><g class="cls-17"><polygon class="cls-10" points="325.82 114.7 384.25 220.99 267 220.99 325.82 114.7"/></g></g><g class="cls-12"><g class="cls-18"><polygon class="cls-15" points="286.5 158.71 317.11 222.7 255.89 222.7 286.5 158.71"/></g></g><g class="cls-12"><g class="cls-19"><polygon class="cls-15" points="926.56 162.54 957.17 224.09 895.95 224.09 926.56 162.54"/></g></g><g class="cls-20"><g class="cls-21"><polygon class="cls-16" points="233.99 151.56 252.34 220.97 215.65 220.97 233.99 151.56"/></g></g><g class="cls-12"><g class="cls-22"><polygon class="cls-10" points="700.6 97.56 743.6 223.06 657.61 222.37 700.6 97.56"/></g></g><g class="cls-12"><g class="cls-23"><polygon class="cls-10" points="952.03 121.73 991.37 224.09 908.42 224.09 952.03 121.73"/></g></g></g><polygon class="cls-11" points="338.73 131.81 302.82 222.7 379.18 222.7 338.73 131.81"/><polygon class="cls-11" points="725.84 148.94 689.93 223.06 766.29 223.06 725.84 148.94"/><polygon class="cls-11" points="948.37 224.09 1024.73 224.09 984.29 130.03 948.37 224.09"/><g class="cls-2"><g class="cls-12"><g class="cls-24"><polygon class="cls-10" points="416.4 144.45 360.83 222.37 478.08 222.7 416.4 144.45"/></g></g></g><polygon class="cls-11" points="154.32 155.84 116.85 222.7 195.92 222.7 154.32 155.84"/><g class="cls-2"><g class="cls-12"><g class="cls-25"><polygon class="cls-10" points="1077.02 139.01 1017.45 224.61 1138.71 224.61 1077.02 139.01"/></g></g><g class="cls-12"><g class="cls-26"><polygon class="cls-10" points="826.69 148.94 771.13 223.06 888.38 223.06 826.69 148.94"/></g></g><g class="cls-12"><g class="cls-27"><polygon class="cls-15" points="255.89 107.14 225.28 222.7 286.5 222.7 255.89 107.14"/></g></g><g class="cls-12"><g class="cls-28"><polygon class="cls-15" points="766.29 121.83 735.67 223.06 796.9 223.06 766.29 121.83"/></g></g><g class="cls-12"><g class="cls-29"><polygon class="cls-15" points="1161.17 121.57 1130.56 224.03 1191.79 224.03 1161.17 121.57"/></g></g><g class="cls-20"><g class="cls-30"><polygon class="cls-16" points="379.18 151.56 360.83 222.7 397.52 222.7 379.18 151.56"/></g></g><g class="cls-8"><g class="cls-31"><polygon class="cls-10" points="502.36 142.08 478.08 222.7 530.6 222.7 502.36 142.08"/></g></g><g class="cls-12"><g class="cls-32"><polygon class="cls-10" points="112.04 113.8 138.3 222.7 85.78 222.7 112.04 113.8"/></g></g><g class="cls-12"><g class="cls-33"><polygon class="cls-15" points="561.21 107.46 591.57 222.7 530.6 222.7 561.21 107.46"/></g></g><g class="cls-20"><g class="cls-34"><polygon class="cls-16" points="457.64 147.74 495.83 222.7 419.46 222.7 457.64 147.74"/></g></g><g class="cls-20"><g class="cls-35"><polygon class="cls-16" points="1029.55 151.56 1067.73 224.09 991.37 224.09 1029.55 151.56"/></g></g></g><polygon class="cls-11" points="621.7 131.81 657.61 221.96 581.25 222.7 621.7 131.81"/><polygon class="cls-11" points="850.19 223.41 926.55 224.38 890.64 126.56 850.19 223.41"/><g class="cls-2"><g class="cls-12"><g class="cls-36"><polygon class="cls-10" points="660.02 121.57 700.6 223.06 619.43 222.7 660.02 121.57"/></g></g></g><polygon class="cls-16" points="530.6 168.45 548.94 222.7 512.25 222.7 530.6 168.45"/><polygon class="cls-16" points="796.9 171.34 815.24 223.06 778.55 223.06 796.9 171.34"/><polygon class="cls-16" points="991.36 171.34 1009.71 224.09 973.02 224.09 991.36 171.34"/></g></svg>